<?xml version="1.0" encoding="utf-8"?>
<!-- Generator: Adobe Illustrator 24.0.0, SVG Export Plug-In . SVG Version: 6.00 Build 0)  -->
<svg version="1.1" id="Layer_1" xmlns="http://www.w3.org/2000/svg" xmlns:xlink="http://www.w3.org/1999/xlink" x="0px" y="0px"
	 viewBox="0 0 439 413.1" style="enable-background:new 0 0 439 413.1;" xml:space="preserve">
<style type="text/css">
	.st0{opacity:0.18;clip-path:url(#SVGID_2_);fill:#FF3C00;enable-background:new    ;}
	.st1{clip-path:url(#SVGID_4_);fill:#FF3C00;}
	.st2{opacity:0.18;clip-path:url(#SVGID_6_);fill:#FF3C00;enable-background:new    ;}
	.st3{clip-path:url(#SVGID_8_);fill:#FFFFFF;}
	.st4{clip-path:url(#SVGID_10_);fill:#FF3C00;}
	.st5{clip-path:url(#SVGID_12_);fill:#FF3C00;}
	.st6{clip-path:url(#SVGID_14_);fill:#FFFFFF;}
	.st7{clip-path:url(#SVGID_16_);fill:#FF3C00;}
	.st8{clip-path:url(#SVGID_18_);fill:url(#SVGID_19_);}
	.st9{clip-path:url(#SVGID_21_);fill:#FF3C00;}
	.st10{clip-path:url(#SVGID_23_);fill:#FF3C00;}
	.st11{clip-path:url(#SVGID_25_);fill:#FC682D;}
	.st12{clip-path:url(#SVGID_27_);fill:#FFAF65;}
	.st13{clip-path:url(#SVGID_29_);fill:#FF3C00;}
	.st14{clip-path:url(#SVGID_31_);fill:url(#SVGID_32_);}
	.st15{clip-path:url(#SVGID_34_);fill:#FF3C00;}
	.st16{clip-path:url(#SVGID_36_);fill:url(#SVGID_37_);}
	.st17{clip-path:url(#SVGID_39_);fill:#FFAF65;}
	.st18{clip-path:url(#SVGID_41_);fill:#ED994B;}
	.st19{clip-path:url(#SVGID_43_);fill:#FFAF65;}
	.st20{clip-path:url(#SVGID_45_);fill:#FFAF65;}
	.st21{clip-path:url(#SVGID_47_);fill:#FFAF65;}
	.st22{clip-path:url(#SVGID_49_);fill:#FFAF65;}
	.st23{clip-path:url(#SVGID_51_);fill:#ED994B;}
	.st24{clip-path:url(#SVGID_53_);fill:#ED994B;}
	.st25{clip-path:url(#SVGID_55_);fill:#AE2A01;}
	.st26{clip-path:url(#SVGID_57_);fill:#AE2A01;}
	.st27{clip-path:url(#SVGID_59_);fill:#AE2A01;}
	.st28{clip-path:url(#SVGID_61_);fill:#AE2A01;}
	.st29{clip-path:url(#SVGID_63_);fill:#AE2A01;}
	.st30{clip-path:url(#SVGID_65_);fill:#FF3C00;}
	.st31{clip-path:url(#SVGID_67_);fill:#FF3C00;}
	.st32{clip-path:url(#SVGID_69_);fill:url(#SVGID_70_);}
	.st33{clip-path:url(#SVGID_72_);fill:#FC682D;}
	.st34{clip-path:url(#SVGID_74_);fill:#FC682D;}
	.st35{clip-path:url(#SVGID_76_);fill:#FF3C00;}
	.st36{clip-path:url(#SVGID_78_);fill:url(#SVGID_79_);}
	.st37{clip-path:url(#SVGID_81_);}
	.st38{clip-path:url(#SVGID_83_);}
	.st39{clip-path:url(#SVGID_85_);}
	.st40{fill:#FF3C00;}
	.st41{fill:#B92C00;}
	.st42{fill:#FFFFFF;}
	.st43{fill:#FC682D;}
	.st44{fill:#CD4409;}
	.st45{fill:#BA2611;}
	.st46{fill:#FF7549;}
	.st47{fill:#B51111;}
	.st48{fill:#FE3E00;}
	.st49{fill:#FEFEFE;}
	.st50{fill:#FEC1AD;}
	.st51{fill:#FF9B80;}
	.st52{opacity:0.63;fill:#FF3C00;enable-background:new    ;}
	.st53{opacity:0.52;}
</style>
<g>
	<g>
		<defs>
			<rect id="SVGID_1_" x="7" y="21" width="439" height="424"/>
		</defs>
		<clipPath id="SVGID_2_">
			<use xlink:href="#SVGID_1_"  style="overflow:visible;"/>
		</clipPath>
		<path class="st0" d="M429.9,272.8c-2.3,14.3-16.5,80.6-68.2,94.7c-39.1,10.7-148.9-25.9-211.5-7.5c-125.9,37.1-149-62.4-142-89.3
			c4.9-18.8,11-37.5,11.1-57.1c0.2-20.5-7-40.6-7.8-61.2C9.6,100.3,46.2,49.1,96.1,34.1c21.4-6.4,38.8-12.9,61.2-13.1
			c45.3-0.4,152.7,0,205.6,77.1c9.5,13.8,23.2,24.1,33.7,37c14.1,17.4,23.5,38.3,29.1,60C432.4,220.3,434,247.1,429.9,272.8z"/>
	</g>
	<g>
		<defs>
			<rect id="SVGID_3_" x="7" y="21" width="439" height="424"/>
		</defs>
		<clipPath id="SVGID_4_">
			<use xlink:href="#SVGID_3_"  style="overflow:visible;"/>
		</clipPath>
		<path class="st1" d="M292.8,204.3h-2.9v56.3h2.9V204.3z"/>
	</g>
	<g>
		<defs>
			<rect id="SVGID_5_" x="7" y="21" width="439" height="424"/>
		</defs>
		<clipPath id="SVGID_6_">
			<use xlink:href="#SVGID_5_"  style="overflow:visible;"/>
		</clipPath>
		<path class="st2" d="M360,104.7H224.8v99.6H360V104.7z"/>
	</g>
	<g>
		<defs>
			<rect id="SVGID_7_" x="7" y="21" width="439" height="424"/>
		</defs>
		<clipPath id="SVGID_8_">
			<use xlink:href="#SVGID_7_"  style="overflow:visible;"/>
		</clipPath>
		<path class="st3" d="M356.8,108.8H228.7v92.4h128.1V108.8z"/>
	</g>
	<g>
		<defs>
			<rect id="SVGID_9_" x="7" y="21" width="439" height="424"/>
		</defs>
		<clipPath id="SVGID_10_">
			<use xlink:href="#SVGID_9_"  style="overflow:visible;"/>
		</clipPath>
		<path class="st4" d="M365.3,199.1H222v5.2h143.3V199.1z"/>
	</g>
	<g>
		<defs>
			<rect id="SVGID_11_" x="7" y="21" width="439" height="424"/>
		</defs>
		<clipPath id="SVGID_12_">
			<use xlink:href="#SVGID_11_"  style="overflow:visible;"/>
		</clipPath>
		<path class="st5" d="M365.3,103.6H222v5.2h143.3V103.6z"/>
	</g>
	<g>
		<defs>
			<rect id="SVGID_13_" x="7" y="21" width="439" height="424"/>
		</defs>
		<clipPath id="SVGID_14_">
			<use xlink:href="#SVGID_13_"  style="overflow:visible;"/>
		</clipPath>
		<path class="st6" d="M215.5,215h-44.7v91.2h44.7V215z"/>
	</g>
	<g>
		<defs>
			<rect id="SVGID_15_" x="7" y="21" width="439" height="424"/>
		</defs>
		<clipPath id="SVGID_16_">
			<use xlink:href="#SVGID_15_"  style="overflow:visible;"/>
		</clipPath>
		<path class="st7" d="M215.5,215h-44.7v91.2h44.7V215z"/>
	</g>
	<g>
		<defs>
			<rect id="SVGID_17_" x="7" y="21" width="439" height="424"/>
		</defs>
		<clipPath id="SVGID_18_">
			<use xlink:href="#SVGID_17_"  style="overflow:visible;"/>
		</clipPath>
		
			<linearGradient id="SVGID_19_" gradientUnits="userSpaceOnUse" x1="192.1257" y1="615.604" x2="194.2197" y2="744.389" gradientTransform="matrix(1 0 0 1 0 -418)">
			<stop  offset="1.000000e-02" style="stop-color:#000000"/>
			<stop  offset="8.000000e-02" style="stop-color:#000000;stop-opacity:0.69"/>
			<stop  offset="0.21" style="stop-color:#000000;stop-opacity:0.32"/>
			<stop  offset="1" style="stop-color:#000000;stop-opacity:0"/>
		</linearGradient>
		<path class="st8" d="M215.5,215h-44.7v91.2h44.7V215z"/>
	</g>
	<g>
		<defs>
			<rect id="SVGID_20_" x="7" y="21" width="439" height="424"/>
		</defs>
		<clipPath id="SVGID_21_">
			<use xlink:href="#SVGID_20_"  style="overflow:visible;"/>
		</clipPath>
		<path class="st9" d="M207.1,215h-27.6v104.2h27.6V215z"/>
	</g>
	<g>
		<defs>
			<rect id="SVGID_22_" x="7" y="21" width="439" height="424"/>
		</defs>
		<clipPath id="SVGID_23_">
			<use xlink:href="#SVGID_22_"  style="overflow:visible;"/>
		</clipPath>
		<path class="st10" d="M220.8,196.7h-55.2v20.9h55.2V196.7z"/>
	</g>
	<g>
		<defs>
			<rect id="SVGID_24_" x="7" y="21" width="439" height="424"/>
		</defs>
		<clipPath id="SVGID_25_">
			<use xlink:href="#SVGID_24_"  style="overflow:visible;"/>
		</clipPath>
		<path class="st11" d="M185,153.4c0.1-0.8,0-1.6,0.1-2.4c0.1-1.2,0.5-2.3,1.1-3.3s1.4-1.9,2.3-2.6c1.9-1.3,4.3-1.9,6.6-1.6
			c3.8,0.4,7,3,8.8,6.3c2.1,3.7,0.1,6.8-1.5,10.1c-1.3,2.5-0.5,5.7,1.1,8c1.3,1.8,3.2,3.5,3,5.7c-0.1,1.3-1,2.5-1.8,3.5
			c-0.5,0.7-1.2,1.5-2.1,1.7c-0.4,0.1-0.9,0.1-1.3,0c-1-0.1-2-0.3-2.9-0.6c-0.9-0.2-1.9-0.6-2.9-0.4c-1.6,0.2-2.8,1.6-3.8,2.9
			c-1,1.3-1.9,2.8-3.4,3.5c-1.1,0.5-2.4,0.5-3.7,0.3c-3.6-0.3-7.4-1.1-9.9-3.8c-0.5-0.6-1.1-1.3-1.5-1.9c-0.3-0.4-0.5-0.7-0.7-1.2
			c-0.4-1.3,0.3-2.6,1-3.7c0.8-1.1,1.7-2.2,1.8-3.5c0.1-1-0.3-2.1-0.4-3.1c-0.3-2,0.5-4,1.7-5.5c1.2-1.6,2.8-2.7,4.5-3.8
			c1.3-0.8,2.7-1.7,3.3-3C184.8,154.5,184.9,154,185,153.4L185,153.4z"/>
	</g>
	<g>
		<defs>
			<rect id="SVGID_26_" x="7" y="21" width="439" height="424"/>
		</defs>
		<clipPath id="SVGID_27_">
			<use xlink:href="#SVGID_26_"  style="overflow:visible;"/>
		</clipPath>
		<path class="st12" d="M182.3,182.4c-1,1.1-3.2,4.3-3.2,4.9c0,0.5,0.3,1.6,0.5,2.1c0.4,1.2,0.9,2.4,1.6,3.5
			c0.6,0.9,1.3,2.2,2.1,2.9c0.6,0.4,1.2,0.7,1.9,0.9h-6c-3-3.4-7.2-8.2-7.4-8.9c-0.2-0.6-0.1-1.3,0.2-1.9c0.3-0.6,0.7-1.1,1.1-1.6
			c1.6-2,5.4-6.6,5.7-6.8c0.3-0.1,0.6-0.2,0.9-0.2c2.6-0.2,5.1-0.2,7.7-0.2C186.5,177.9,183.1,181.4,182.3,182.4z"/>
	</g>
	<g>
		<defs>
			<rect id="SVGID_28_" x="7" y="21" width="439" height="424"/>
		</defs>
		<clipPath id="SVGID_29_">
			<use xlink:href="#SVGID_28_"  style="overflow:visible;"/>
		</clipPath>
		<path class="st13" d="M189.7,166.4c0,0-7.5,3.4-7.9,4.3c-0.4,0.9,0,26.1,0,26.1h26.3l-1.5-26.5l-7.7-3.2L189.7,166.4z"/>
	</g>
	<g>
		<defs>
			<rect id="SVGID_30_" x="7" y="21" width="439" height="424"/>
		</defs>
		<clipPath id="SVGID_31_">
			<use xlink:href="#SVGID_30_"  style="overflow:visible;"/>
		</clipPath>
		
			<linearGradient id="SVGID_32_" gradientUnits="userSpaceOnUse" x1="-437.7406" y1="18178.5234" x2="-181.4397" y2="11057.8213" gradientTransform="matrix(1 0 0 1 0 -418)">
			<stop  offset="1.000000e-02" style="stop-color:#000000"/>
			<stop  offset="8.000000e-02" style="stop-color:#000000;stop-opacity:0.69"/>
			<stop  offset="0.21" style="stop-color:#000000;stop-opacity:0.32"/>
			<stop  offset="1" style="stop-color:#000000;stop-opacity:0"/>
		</linearGradient>
		<path class="st14" d="M208.1,196.7h-26.3c0,0-0.4-25.2,0-26.1c0.4-0.9,7.9-4.2,7.9-4.2l9.2,0.6l7.7,3.2l0.7,12.7L208.1,196.7z"/>
	</g>
	<g>
		<defs>
			<rect id="SVGID_33_" x="7" y="21" width="439" height="424"/>
		</defs>
		<clipPath id="SVGID_34_">
			<use xlink:href="#SVGID_33_"  style="overflow:visible;"/>
		</clipPath>
		<path class="st15" d="M181.7,170.6l-6.3,8c1.3,3.7,6.3,8.5,6.3,8.5V170.6z"/>
	</g>
	<g>
		<defs>
			<rect id="SVGID_35_" x="7" y="21" width="439" height="424"/>
		</defs>
		<clipPath id="SVGID_36_">
			<use xlink:href="#SVGID_35_"  style="overflow:visible;"/>
		</clipPath>
		
			<linearGradient id="SVGID_37_" gradientUnits="userSpaceOnUse" x1="2781.4771" y1="971.4103" x2="2589.7073" y2="944.0505" gradientTransform="matrix(1 0 0 1 0 -418)">
			<stop  offset="1.000000e-02" style="stop-color:#000000"/>
			<stop  offset="8.000000e-02" style="stop-color:#000000;stop-opacity:0.69"/>
			<stop  offset="0.21" style="stop-color:#000000;stop-opacity:0.32"/>
			<stop  offset="1" style="stop-color:#000000;stop-opacity:0"/>
		</linearGradient>
		<path class="st16" d="M181.7,177.9l-3.9,4.8l3.9,4.4V177.9z"/>
	</g>
	<g>
		<defs>
			<rect id="SVGID_38_" x="7" y="21" width="439" height="424"/>
		</defs>
		<clipPath id="SVGID_39_">
			<use xlink:href="#SVGID_38_"  style="overflow:visible;"/>
		</clipPath>
		<path class="st17" d="M189.8,162.8c0.3,1.4-0.1,2.4-0.2,3.6c-0.1,1.8,1.9,4.7,2.6,6.4c0.3,0.6,0.5,1.1,1.1,1.4
			c0.4,0.1,0.8,0.2,1.2,0.1c0.6,0,1.2-0.1,1.8-0.4c0.7-0.4,1-1.3,1.3-2.1c0.4-1.3,1.4-3.3,1.2-4.7c-0.1-0.4-0.5-0.9-0.6-1.3
			c-0.1-0.6-0.1-1.2-0.1-1.8C198.2,160.8,189.8,162.8,189.8,162.8z"/>
	</g>
	<g>
		<defs>
			<rect id="SVGID_40_" x="7" y="21" width="439" height="424"/>
		</defs>
		<clipPath id="SVGID_41_">
			<use xlink:href="#SVGID_40_"  style="overflow:visible;"/>
		</clipPath>
		<path class="st18" d="M189.8,162.8c0,0,1.1,5.7,4.4,5.3c0.9-0.1,1.8-0.4,2.5-1s1.2-1.4,1.4-2.3L189.8,162.8z"/>
	</g>
	<g>
		<defs>
			<rect id="SVGID_42_" x="7" y="21" width="439" height="424"/>
		</defs>
		<clipPath id="SVGID_43_">
			<use xlink:href="#SVGID_42_"  style="overflow:visible;"/>
		</clipPath>
		<path class="st19" d="M189.5,161.8c0.2,0.9,0.5,1.8,1,2.6c1.4,2,4.5,2.6,6.6,1.3c1.2-0.7,1.9-1.9,2.5-3.2c1.2-2.7,1.6-5.6,1.2-8.5
			c-0.2-1.1-0.5-2.2-1.2-3.1c-1.2-1.4-3.3-1.8-5.2-1.7c-1.7,0.1-3.4,0.5-4.7,1.6c-0.7,0.6-1.2,1.4-1.5,2.3c-0.3,0.9-0.3,1.8-0.1,2.7
			C188.5,157.8,189,159.8,189.5,161.8z"/>
	</g>
	<g>
		<defs>
			<rect id="SVGID_44_" x="7" y="21" width="439" height="424"/>
		</defs>
		<clipPath id="SVGID_45_">
			<use xlink:href="#SVGID_44_"  style="overflow:visible;"/>
		</clipPath>
		<path class="st20" d="M228.1,167.4c0.1-0.2,0.4-0.4,0.5-0.3c0.1,0.1,0.1,0.2,0.1,0.3c0.1,0.9,0.1,1.8-0.2,2.6
			c0.9-1.8,2-3.5,3.2-5.2c0.2-0.3,0.6-0.6,0.9-0.4c-0.1,1.3-0.6,2.6-1.3,3.7c0.5-1.3,1.4-2.5,2.5-3.3c0.2,1.4-0.5,2.8-1.2,4
			c0.5-1,1.2-1.8,2-2.6c0.3,0.4,0.1,1-0.2,1.5l-1.3,2.5c0.5-0.8,1.1-1.6,1.8-2.2c0.2,0.4,0,0.9-0.3,1.3l-2.4,4.1
			c-0.3,0.6-0.8,1.2-1.3,1.8c-0.4,0.4-1,0.7-1.5,1.1c-0.4,0.4-10.6,10.6-11.5,10.9c-0.6,0.2-1.3,0.2-1.9-0.1c-0.6-0.3-1.2-0.6-1.7-1
			c-2.1-1.5-6.9-5-7.1-5.3c-0.1-0.3-0.2-0.6-0.2-0.9c-0.3-2.6-0.5-5.1-0.6-7.7c0.8,0.9,4.5,4,5.5,4.8c1.2,0.9,4.5,2.9,5.1,3
			c0.5,0,1.6-0.4,2.1-0.6c1.2-0.5,2.4-1.1,3.4-1.8c0.9-0.6,2.1-1.4,2.7-2.3c0.7-1,0.9-2.8,1.2-4C226.9,170,227.4,168.7,228.1,167.4
			L228.1,167.4z"/>
	</g>
	<g>
		<defs>
			<rect id="SVGID_46_" x="7" y="21" width="439" height="424"/>
		</defs>
		<clipPath id="SVGID_47_">
			<use xlink:href="#SVGID_46_"  style="overflow:visible;"/>
		</clipPath>
		<path class="st21" d="M188.1,156.5c-0.1-0.1-0.2-0.1-0.4-0.2c-0.1,0-0.3,0-0.4,0.1c-0.1,0.1-0.2,0.1-0.3,0.2
			c-0.1,0.1-0.1,0.2-0.2,0.4c-0.1,0.8,0,1.6,0.5,2.2c0.1,0.2,0.2,0.4,0.4,0.5c0.3,0.2,0.7,0.3,1.1,0.3c0.1,0,0.2,0,0.3,0
			s0.1-0.1,0.2-0.1c0.1-0.2,0.2-0.3,0.3-0.5s0.1-0.4,0-0.6C189.4,157.9,188.9,156.9,188.1,156.5z"/>
	</g>
	<g>
		<defs>
			<rect id="SVGID_48_" x="7" y="21" width="439" height="424"/>
		</defs>
		<clipPath id="SVGID_49_">
			<use xlink:href="#SVGID_48_"  style="overflow:visible;"/>
		</clipPath>
		<path class="st22" d="M201.1,159.9c-0.2,0.1-0.4,0.1-0.6,0.1c-0.2,0-0.4-0.1-0.5-0.2c-0.1-0.1-0.1-0.2-0.2-0.4
			c-0.1-0.8,0-1.6,0.5-2.2c0.1-0.2,0.2-0.4,0.4-0.5c0.3-0.2,0.7-0.3,1.1-0.3c0.1,0,0.2,0,0.3,0s0.1,0.1,0.2,0.1
			c0.1,0.2,0.2,0.3,0.3,0.5s0.1,0.4,0,0.6C202.4,158.5,201.9,159.5,201.1,159.9z"/>
	</g>
	<g>
		<defs>
			<rect id="SVGID_50_" x="7" y="21" width="439" height="424"/>
		</defs>
		<clipPath id="SVGID_51_">
			<use xlink:href="#SVGID_50_"  style="overflow:visible;"/>
		</clipPath>
		<path class="st23" d="M187.4,158.5c0.1,0.3,0.3,0.5,0.5,0.7c0.1,0.1,0.2,0.1,0.4,0.1c0.1,0,0.3,0,0.4-0.1l0.1-0.1
			c0-0.1,0-0.2,0-0.2l-0.1-0.1c0,0,0-0.1-0.1-0.1c-0.1-0.1-0.3-0.1-0.4-0.2c-0.1-0.1-0.2-0.3-0.3-0.4c0-0.1-0.1-0.1-0.1-0.2
			c-0.1,0-0.1-0.1-0.2-0.1c-0.1,0-0.1,0-0.2,0.1c0,0.1-0.1,0.1-0.1,0.2C187.3,158.2,187.3,158.3,187.4,158.5L187.4,158.5z"/>
	</g>
	<g>
		<defs>
			<rect id="SVGID_52_" x="7" y="21" width="439" height="424"/>
		</defs>
		<clipPath id="SVGID_53_">
			<use xlink:href="#SVGID_52_"  style="overflow:visible;"/>
		</clipPath>
		<path class="st24" d="M201.9,158.2c-0.1,0.3-0.3,0.5-0.5,0.7c-0.1,0.1-0.2,0.1-0.4,0.1c-0.1,0-0.3,0-0.4-0.1l-0.1-0.1
			c0-0.1,0-0.2,0-0.2l0.1-0.1c0,0,0-0.1,0.1-0.1c0.1-0.1,0.3-0.1,0.4-0.2c0.1-0.1,0.2-0.3,0.3-0.4c0-0.1,0.1-0.1,0.1-0.2
			c0.1,0,0.1-0.1,0.2-0.1c0.1,0,0.1,0,0.2,0.1c0,0.1,0.1,0.1,0.1,0.2C202,157.9,202,158.1,201.9,158.2z"/>
	</g>
	<g>
		<defs>
			<rect id="SVGID_54_" x="7" y="21" width="439" height="424"/>
		</defs>
		<clipPath id="SVGID_55_">
			<use xlink:href="#SVGID_54_"  style="overflow:visible;"/>
		</clipPath>
		<path class="st25" d="M189.7,166.4l-1.8,0.8l0.9,8.1l4.6,1.8C193.4,177.1,191.5,171.2,189.7,166.4z"/>
	</g>
	<g>
		<defs>
			<rect id="SVGID_56_" x="7" y="21" width="439" height="424"/>
		</defs>
		<clipPath id="SVGID_57_">
			<use xlink:href="#SVGID_56_"  style="overflow:visible;"/>
		</clipPath>
		<path class="st26" d="M190.3,175.9l-0.6,3.1l5.6,6.3l-1.9-8.2L190.3,175.9z"/>
	</g>
	<g>
		<defs>
			<rect id="SVGID_58_" x="7" y="21" width="439" height="424"/>
		</defs>
		<clipPath id="SVGID_59_">
			<use xlink:href="#SVGID_58_"  style="overflow:visible;"/>
		</clipPath>
		<path class="st27" d="M198.9,167.1l1.8,0.8l1,7.5l-4.7,1.7C197,177.1,198.9,169.6,198.9,167.1z"/>
	</g>
	<g>
		<defs>
			<rect id="SVGID_60_" x="7" y="21" width="439" height="424"/>
		</defs>
		<clipPath id="SVGID_61_">
			<use xlink:href="#SVGID_60_"  style="overflow:visible;"/>
		</clipPath>
		<path class="st28" d="M200.2,175.9l0.6,3.1l-5.6,6.3l1.9-8.2L200.2,175.9z"/>
	</g>
	<g>
		<defs>
			<rect id="SVGID_62_" x="7" y="21" width="439" height="424"/>
		</defs>
		<clipPath id="SVGID_63_">
			<use xlink:href="#SVGID_62_"  style="overflow:visible;"/>
		</clipPath>
		<path class="st29" d="M202.5,196.6l-17.4-3.1l-3.3-15.6v17.4v1.4L202.5,196.6z"/>
	</g>
	<g>
		<defs>
			<rect id="SVGID_64_" x="7" y="21" width="439" height="424"/>
		</defs>
		<clipPath id="SVGID_65_">
			<use xlink:href="#SVGID_64_"  style="overflow:visible;"/>
		</clipPath>
		<path class="st30" d="M179.5,196.7c0-0.2-1.6-21.2,13.6-24.1l0.2,1c-14.3,2.8-12.8,22.9-12.8,23.1H179.5z"/>
	</g>
	<g>
		<defs>
			<rect id="SVGID_66_" x="7" y="21" width="439" height="424"/>
		</defs>
		<clipPath id="SVGID_67_">
			<use xlink:href="#SVGID_66_"  style="overflow:visible;"/>
		</clipPath>
		<path class="st31" d="M193.7,174.2c0.7,0,1.3-0.6,1.3-1.3s-0.6-1.3-1.3-1.3s-1.3,0.6-1.3,1.3S193,174.2,193.7,174.2z"/>
	</g>
	<g>
		<defs>
			<rect id="SVGID_68_" x="7" y="21" width="439" height="424"/>
		</defs>
		<clipPath id="SVGID_69_">
			<use xlink:href="#SVGID_68_"  style="overflow:visible;"/>
		</clipPath>
		
			<linearGradient id="SVGID_70_" gradientUnits="userSpaceOnUse" x1="763.4022" y1="2040.5903" x2="797.1122" y2="2126.3701" gradientTransform="matrix(1 0 0 1 0 -418)">
			<stop  offset="1.000000e-02" style="stop-color:#000000"/>
			<stop  offset="8.000000e-02" style="stop-color:#000000;stop-opacity:0.69"/>
			<stop  offset="0.21" style="stop-color:#000000;stop-opacity:0.32"/>
			<stop  offset="1" style="stop-color:#000000;stop-opacity:0"/>
		</linearGradient>
		<path class="st32" d="M193.7,174.2c0.7,0,1.3-0.6,1.3-1.3s-0.6-1.3-1.3-1.3s-1.3,0.6-1.3,1.3S193,174.2,193.7,174.2z"/>
	</g>
	<g>
		<defs>
			<rect id="SVGID_71_" x="7" y="21" width="439" height="424"/>
		</defs>
		<clipPath id="SVGID_72_">
			<use xlink:href="#SVGID_71_"  style="overflow:visible;"/>
		</clipPath>
		<path class="st33" d="M195.8,150.3c-0.1,0.7-0.3,1.4-0.6,2.1c-0.4,0.8-0.9,1.5-1.5,2c-0.6,0.6-1.4,1-2.2,1.3
			c-1.6,0.6-3.4,0.7-5,0.3c0-1.4,0.1-2.9,0.7-4.2c0.4-0.8,0.9-1.6,1.6-2.2c0.7-0.7,1.5-1.4,2.4-1.7c0.6-0.2,1.3-0.2,2-0.2
			c0.6,0,1.2,0,1.9,0c0.3,0,1.3-0.2,1.5,0.1s-0.1,0.7-0.3,1C196,149.3,195.9,149.8,195.8,150.3L195.8,150.3z"/>
	</g>
	<g>
		<defs>
			<rect id="SVGID_73_" x="7" y="21" width="439" height="424"/>
		</defs>
		<clipPath id="SVGID_74_">
			<use xlink:href="#SVGID_73_"  style="overflow:visible;"/>
		</clipPath>
		<path class="st34" d="M198.5,152.6c0,0.7-0.1,1.4,0.1,2c0.3,0.7,1,1.1,1.7,1.4c0.8,0.4,1.6,0.6,2.5,0.5c-0.1-1.2-0.3-2.4-0.6-3.6
			c-0.3-1.2-1-2.2-1.9-3c-0.4-0.3-2.3-1.6-2.4-0.6c0,0.5,0.3,1,0.4,1.5C198.5,151.2,198.5,151.9,198.5,152.6z"/>
	</g>
	<g>
		<defs>
			<rect id="SVGID_75_" x="7" y="21" width="439" height="424"/>
		</defs>
		<clipPath id="SVGID_76_">
			<use xlink:href="#SVGID_75_"  style="overflow:visible;"/>
		</clipPath>
		<path class="st35" d="M206.5,170.2l6.2,3.2l-3.9,9.7l-1.6-0.2C207.3,182.9,205.4,173.8,206.5,170.2z"/>
	</g>
	<g>
		<defs>
			<rect id="SVGID_77_" x="7" y="21" width="439" height="424"/>
		</defs>
		<clipPath id="SVGID_78_">
			<use xlink:href="#SVGID_77_"  style="overflow:visible;"/>
		</clipPath>
		
			<linearGradient id="SVGID_79_" gradientUnits="userSpaceOnUse" x1="604.1945" y1="3745.3972" x2="553.8647" y2="3344.9973" gradientTransform="matrix(1 0 0 1 0 -418)">
			<stop  offset="1.000000e-02" style="stop-color:#000000"/>
			<stop  offset="8.000000e-02" style="stop-color:#000000;stop-opacity:0.69"/>
			<stop  offset="0.21" style="stop-color:#000000;stop-opacity:0.32"/>
			<stop  offset="1" style="stop-color:#000000;stop-opacity:0"/>
		</linearGradient>
		<path class="st36" d="M210.3,179.4l-3.9-2.3l0.9,5.8l1.6,0.2L210.3,179.4z"/>
	</g>
	<g>
		<defs>
			<rect id="SVGID_80_" x="7" y="21" width="439" height="424"/>
		</defs>
		<clipPath id="SVGID_81_">
			<use xlink:href="#SVGID_80_"  style="overflow:visible;"/>
		</clipPath>
		<g class="st37">
			<g>
				<defs>
					<path id="SVGID_82_" d="M429.8,272.8c-2.3,14.3-16.5,80.6-68.2,94.7c-39.1,10.7-148.9-25.9-211.5-7.5
						c-125.9,37.1-149-62.4-142-89.3c4.9-18.8,11-37.5,11.1-57.1c0.2-20.5-7-40.6-7.8-61.2C9.5,100.3,46.1,49.1,96,34.1
						c21.4-6.4,38.8-12.9,61.2-13.1c45.3-0.4,152.7,0,205.6,77.1c9.5,13.8,23.2,24.1,33.7,37c14.1,17.4,23.5,38.3,29.1,59.9
						C432.3,220.3,433.9,247.1,429.8,272.8z"/>
				</defs>
				<clipPath id="SVGID_83_">
					<use xlink:href="#SVGID_82_"  style="overflow:visible;"/>
				</clipPath>
				<g class="st38">
					<g>
						<defs>
							<rect id="SVGID_84_" x="10" y="244" width="426" height="202"/>
						</defs>
						<clipPath id="SVGID_85_">
							<use xlink:href="#SVGID_84_"  style="overflow:visible;"/>
						</clipPath>
						<g class="st39">
							<path class="st40" d="M426.4,273.8c0,0,7,0.2,8.3,3.2c1.3,2.9,1.3,23.2,1.3,23.2h-30c0,0-0.7-21.3,0.7-23.3
								C408.1,274.9,426.4,273.8,426.4,273.8z"/>
							<path class="st41" d="M417.6,244.6c1.4-0.4,3-0.3,4.3,0.4c0.7,0.4,1,1.2,1.6,1.6c0.5,0.3,1.3-0.1,1.7,0.6
								c0.5,0.7,0.8,1.9,1.2,2.7c0.5,1,0.9,2.1,1.3,3.2c0.8,2.2,1.4,4.4,1.8,6.7c0.9,4.5,1.2,9.1,1,13.7c-0.1,2.8-0.3,5.6-1.4,8.1
								c-1.1,2.8-6.2,2-8.5,2c-3.9-0.1-7.9-0.3-11.8-0.6c-0.9-9-0.7-18,0.5-26.9c0.3-2,0.6-4,1.5-5.8
								C412.2,247.9,414.8,245.4,417.6,244.6z"/>
							<path class="st40" d="M394.3,323.4c0,0-1.3-45.5-2.3-47.1c-1-1.5-9.5-4.7-20.1-4c-10.6,0.8-13.8,4-13.8,4l-2.7,47.1H394.3z"
								/>
							<path class="st42" d="M386.2,299.4c0,0-5.3,2.5-5.9,4.4s-2.1,19.6-2.1,19.6h41.5c0,0-2.3-20.4-4-22.2
								C414,299.5,395,297.2,386.2,299.4z"/>
							<path class="st41" d="M405.2,269.8c0.3,0.1,0.7,0,1,0.1c0.4,0.1,0.8,0.2,1.1,0.5c0.3,0.3,0.6,0.6,0.7,1
								c0.1,0.3,0.2,0.6,0.3,0.8c0.2,0.3,0.4,0.5,0.6,0.7c0.2,0.3,0.4,0.6,0.4,1s0,0.7-0.2,1c0.4,0.2,0.7,0.6,1,0.9
								c0.2,0.4,0.4,0.8,0.4,1.3c0,0.3,0,0.7,0,1.1c0.1,1.1,1,2,1.4,3s0.4,2.1,0.1,3c-0.4,1-1.1,1.8-2,2.3c0.6,0.6,1,1.5,1,2.4
								s-0.3,1.8-0.9,2.4c0.9,0.8,1.9,1.6,2.3,2.8c0.4,1.2,0.2,2.7-0.9,3.3c0.4,0.4,0.6,0.9,0.7,1.4s0,1.1-0.2,1.6s-0.6,0.9-1,1.2
								c-0.4,0.3-1,0.4-1.5,0.4c0.2,0.6,0.2,1.2,0,1.7c-0.1,0.6-0.4,1.1-0.8,1.5s-0.9,0.8-1.4,1s-1.1,0.2-1.7,0.1
								c0.1,1.5,0,3.1-0.3,4.6c-2.1,0.5-4.4,0.3-6.4-0.5c-0.8,0.6-1.7,1.3-2.7,1.5s-2.2-0.1-2.8-1c-0.3-0.5-0.5-1.2-1-1.4
								c-0.2-0.1-0.5-0.1-0.7-0.1H388c-0.3,0-0.5,0-0.8-0.2c-0.2-0.2-0.3-0.4-0.3-0.6c-0.3-1-0.3-2.1-0.1-3.2
								c-0.3-0.1-0.6-0.3-0.8-0.5c-0.2-0.2-0.4-0.5-0.5-0.8s-0.2-0.6-0.2-1c0-0.3,0.1-0.7,0.2-1c0.2-0.3,0.3-0.6,0.5-1
								c0.1-0.6-0.1-1.2-0.2-1.7c-0.1-0.8,0-1.6,0.5-2.3c0.2-0.2,0.3-0.5,0.4-0.8c0.1-0.4-0.2-0.8-0.4-1.1c-0.3-0.6-0.5-1.3-0.6-2
								s0-1.4,0.2-2.1c0.2-0.5,0.4-1,0.3-1.5c-0.1-0.3-0.1-0.6-0.3-0.9c-0.3-0.7-0.4-1.4-0.3-2.1c0-0.7,0.2-1.4,0.6-2.1
								c0.2-0.3,0.4-0.7,0.5-1.1c0-0.3,0-0.7-0.1-1c-0.4-1.8-0.4-3.6-0.1-5.4c0.2-1,0.5-2.1,1.4-2.5c0.2-0.1,0.4-0.2,0.5-0.3
								c0.1-0.2,0.1-0.4,0.1-0.6c0-0.4,0.1-0.8,0.3-1.1c0.2-0.4,0.4-0.7,0.7-0.9c0.3-0.3,0.6-0.4,1-0.6c0.4-0.1,0.8-0.2,1.1-0.1
								c0.5-2.1,3.2-3.3,5-2.2c0.1-0.5,0.4-1,0.8-1.4s0.9-0.6,1.5-0.7c1.3-0.1,2,1,3,1.6C402.8,268.6,404.1,269.6,405.2,269.8z"/>
							<path class="st42" d="M380.6,270.7c-0.1-0.1-0.3-0.2-0.5-0.2c-1.1-0.2-2.2,0.2-3.2,0.4c-2.5,0.5-5.1,0.3-7.6,0.2
								c-0.1,0-0.1,0-0.2,0s-0.1,0.1-0.2,0.2c-0.1,0.2-0.1,0.4-0.1,0.7c0,0.2,0.1,0.4,0.3,0.6c0.3,0.3,0.7,0.6,1.1,0.7
								c0.6,0.3,1.3,0.5,1.9,0.6c0.8,0.1,1.7,0.2,2.5,0.2c1.6,0,3.2,0,4.6-0.6c0.4-0.1,0.8-0.4,1-0.8
								C380.6,272.2,381.1,271.2,380.6,270.7z"/>
							<path class="st41" d="M384.4,249.5c0.3,0.4,0.6,0.9,0.8,1.3c0.8,1.6,0.9,3.5,1,5.3c0.1,1.6-0.2,3.1-0.7,4.6
								c-0.6,1.5-1.6,2.6-2.4,4c-0.7,1.2-1.2,2.4-2,3.6c-0.7,1-1.6,1.9-2.6,2.6s-2.2,1.1-3.4,1.2c-1.2,0.1-2.4,0-3.5-0.5
								s-2.1-1.2-2.9-2.1c-0.8-1-1.3-2.1-1.9-3.2c-0.6-0.9-1.2-1.9-1.7-2.9c-0.7-1.5-0.9-3.3-1-5c-0.2-1.7-0.1-3.3,0.1-5
								s1-3.2,2.1-4.4c0.7-0.7,1.5-1.3,2.4-1.7c1.4-0.9,2.9-1.8,4.5-2.2c1.6-0.4,3.4-0.4,4.9,0.6c0.6,0.4,1.1,0.9,1.8,1.3
								c0.6,0.4,1.4,0.5,2.1,0.8C382.9,248.1,383.7,248.7,384.4,249.5z"/>
							<path class="st40" d="M157.9,274c0,0,7,0.2,8.3,3.2c1.3,2.9,1.3,40,1.3,40h-30c0,0-0.7-38.2,0.7-40.1
								C139.7,275.1,157.9,274,157.9,274z"/>
							<path class="st41" d="M138.3,263.5c0-3.7,0.5-7.4,2.1-10.7c3.3-6.6,11.8-10.9,17.6-5c2.6,2.6,3.8,6.6,3.3,10.4
								c-0.4,3.1-1.8,6.1-1.6,9.2c0.2,2.9,1.6,5.4,2.8,8s2.2,5.5,1.4,8.2c-0.7,2.4-2.7,4.1-4.8,5.1c-2.2,1-4.6,1.3-7,1.5
								s-5,0.3-7.2-0.7c-3.8-1.9-3.4-6.9-4.3-10.5C139.3,273.9,138.3,268.7,138.3,263.5z"/>
							<path class="st43" d="M351.1,323.4c0,0-1.3-45.5-2.3-47.1c-1-1.5-9.5-4.7-20.1-4c-10.6,0.8-13.7,4-13.7,4l-2.7,47.1H351.1z"
								/>
							<path class="st43" d="M343.1,299.4c0,0-5.3,2.5-5.9,4.4s-2.1,43.9-2.1,43.9h41.5c0,0-2.3-44.7-4-46.5
								C370.9,299.5,351.9,297.2,343.1,299.4z"/>
							<path class="st44" d="M362,269.8c0.3,0.1,0.7,0,1,0.1c0.4,0.1,0.8,0.2,1.1,0.5c0.3,0.3,0.6,0.6,0.7,1
								c0.1,0.3,0.1,0.6,0.3,0.8c0.2,0.3,0.4,0.5,0.6,0.7c0.2,0.3,0.4,0.6,0.4,1s0,0.7-0.2,1c0.4,0.2,0.7,0.6,1,0.9
								c0.2,0.4,0.4,0.8,0.4,1.3c0,0.3,0,0.7,0,1.1c0.1,1.1,1,2,1.4,3s0.4,2.1,0.1,3c-0.4,1-1.1,1.8-2,2.3c0.6,0.6,1,1.5,1,2.4
								s-0.3,1.8-0.9,2.4c0.9,0.8,1.9,1.6,2.3,2.8c0.4,1.2,0.2,2.7-0.9,3.3c0.4,0.4,0.6,0.9,0.7,1.4s0,1.1-0.2,1.6s-0.6,0.9-1,1.2
								c-0.4,0.3-1,0.4-1.5,0.4c0.2,0.6,0.2,1.2,0,1.7c-0.1,0.6-0.4,1.1-0.8,1.5s-0.9,0.8-1.4,1s-1.1,0.2-1.7,0.1
								c0.1,1.5,0,3.1-0.3,4.6c-2.1,0.5-4.4,0.3-6.4-0.5c-0.8,0.6-1.7,1.3-2.7,1.5s-2.2-0.1-2.8-1c-0.3-0.5-0.5-1.2-1-1.4
								c-0.2-0.1-0.5-0.1-0.7-0.1h-3.7c-0.3,0-0.5,0-0.8-0.2c-0.2-0.2-0.3-0.4-0.3-0.6c-0.3-1-0.3-2.1-0.1-3.2
								c-0.3-0.1-0.6-0.3-0.8-0.5c-0.2-0.2-0.4-0.5-0.5-0.8s-0.2-0.6-0.2-1c0-0.3,0.1-0.7,0.2-1c0.2-0.3,0.3-0.6,0.5-1
								c0.1-0.6-0.1-1.2-0.2-1.7c-0.1-0.8,0-1.6,0.5-2.3c0.2-0.2,0.3-0.5,0.4-0.8c0.1-0.4-0.2-0.8-0.4-1.1c-0.3-0.6-0.5-1.3-0.6-2
								s0-1.4,0.2-2.1c0.2-0.5,0.4-1,0.3-1.5c-0.1-0.3-0.1-0.6-0.3-0.9c-0.3-0.7-0.4-1.4-0.3-2.1c0-0.7,0.2-1.4,0.6-2.1
								c0.2-0.3,0.4-0.7,0.5-1.1c0-0.3,0-0.7-0.1-1c-0.4-1.8-0.4-3.6-0.1-5.4c0.2-1,0.5-2.1,1.4-2.5c0.2-0.1,0.4-0.2,0.5-0.3
								c0.1-0.2,0.1-0.4,0.1-0.6c0-0.4,0.1-0.8,0.3-1.1c0.2-0.4,0.4-0.7,0.7-0.9c0.3-0.3,0.6-0.4,1-0.6c0.4-0.1,0.8-0.2,1.1-0.1
								c0.5-2.1,3.2-3.3,5-2.2c0.1-0.5,0.4-1,0.8-1.4s0.9-0.6,1.5-0.7c1.3-0.1,2,1,3,1.6C359.6,268.6,361,269.6,362,269.8z"/>
							<path class="st42" d="M337.5,270.7c-0.1-0.1-0.3-0.2-0.5-0.2c-1.1-0.2-2.2,0.2-3.2,0.4c-2.5,0.5-5.1,0.3-7.6,0.2
								c-0.1,0-0.1,0-0.2,0s-0.1,0.1-0.2,0.2c-0.1,0.2-0.1,0.4-0.1,0.7c0,0.2,0.1,0.4,0.3,0.6c0.3,0.3,0.7,0.6,1.1,0.7
								c0.6,0.3,1.3,0.5,1.9,0.6c0.8,0.1,1.7,0.2,2.5,0.2c1.6,0,3.2,0,4.6-0.6c0.4-0.1,0.8-0.4,1-0.8
								C337.4,272.2,337.9,271.2,337.5,270.7z"/>
							<path class="st44" d="M341.2,249.5c0.3,0.4,0.6,0.9,0.8,1.3c0.8,1.6,0.9,3.5,1,5.3c0.1,1.6-0.2,3.1-0.7,4.6
								c-0.6,1.5-1.6,2.6-2.4,4c-0.7,1.2-1.2,2.4-2,3.6c-0.7,1-1.6,1.9-2.6,2.6s-2.2,1.1-3.4,1.2c-1.2,0.1-2.4,0-3.5-0.5
								s-2.1-1.2-2.9-2.1c-0.8-1-1.3-2.1-1.9-3.2c-0.6-0.9-1.2-1.9-1.7-2.9c-0.7-1.5-0.9-3.3-1-5c-0.2-1.7-0.1-3.3,0.1-5
								s1-3.2,2.1-4.4c0.7-0.7,1.5-1.3,2.4-1.7c1.4-0.9,2.9-1.8,4.5-2.2c1.6-0.4,3.4-0.4,4.9,0.6c0.6,0.4,1.1,0.9,1.7,1.3
								s1.4,0.5,2.1,0.8C339.7,248.1,340.6,248.7,341.2,249.5z"/>
							<path class="st40" d="M320.4,297.1c0,0,7,0.2,8.3,3.2c1.3,2.9,1.3,23.2,1.3,23.2h-30c0,0-0.7-21.3,0.7-23.3
								C302.2,298.2,320.4,297.1,320.4,297.1z"/>
							<path class="st41" d="M311.6,267.8c1.4-0.4,3-0.3,4.3,0.4c0.7,0.4,1,1.2,1.6,1.6c0.5,0.3,1.3-0.1,1.7,0.6
								c0.5,0.7,0.8,1.9,1.2,2.7c0.5,1,0.9,2.1,1.3,3.2c0.8,2.2,1.4,4.4,1.8,6.7c0.9,4.5,1.2,9.1,1,13.7c-0.1,2.8-0.3,5.6-1.4,8.1
								c-1.1,2.8-6.2,2-8.5,2c-3.9-0.1-7.9-0.3-11.8-0.6c-0.9-9-0.7-18,0.5-26.9c0.3-2,0.6-4,1.5-5.8
								C306.2,271.1,308.8,268.6,311.6,267.8z"/>
							<path class="st40" d="M319.4,295.8c0,0,7,0.2,8.3,3.2c1.3,2.9,1.3,23.2,1.3,23.2h-30c0,0-0.7-21.3,0.7-23.3
								C301.2,296.9,319.4,295.8,319.4,295.8z"/>
							<path class="st41" d="M310.6,266.6c1.4-0.4,3-0.3,4.3,0.4c0.7,0.4,1,1.1,1.6,1.6c0.5,0.3,1.3-0.1,1.7,0.6
								c0.5,0.7,0.8,1.9,1.2,2.7c0.5,1,0.9,2.1,1.3,3.2c0.8,2.2,1.4,4.4,1.8,6.7c0.9,4.5,1.2,9.1,1,13.7c-0.1,2.8-0.3,5.6-1.4,8.1
								c-1.1,2.8-6.2,2-8.5,2c-3.9-0.1-7.9-0.3-11.8-0.6c-0.9-9-0.7-18,0.5-26.9c0.3-2,0.6-4,1.5-5.8
								C305.2,269.9,307.8,267.4,310.6,266.6z"/>
							<path class="st43" d="M291.2,274.8c0,0,7,0.2,8.3,3.2c1.3,2.9,1.3,22.4,1.3,22.4h-30c0,0-0.7-20.5,0.7-22.5
								C273,275.8,291.2,274.8,291.2,274.8z"/>
							<path class="st44" d="M285.9,246.3c1.8,0.8,2.9,2.6,3.8,4.3c3.9,7.6,5.1,16.4,4.9,25c-0.1,2.8-0.3,5.6-1.4,8.1
								c-0.1,0.5-0.4,0.9-0.8,1.2c-0.4,0.2-0.9,0.3-1.4,0.3c-5.3,0.1-10.6-0.1-15.9-0.5c-1.8-6.7-3.6-13.6-3.6-20.6
								c0-3.7,0.5-7.4,2.1-10.7c1.6-3.3,4.5-6,7.9-6.8c2.3-0.5,5.1,0.1,6,2.3"/>
							<path class="st43" d="M287.3,345.4c0,0-1.3-45.5-2.3-47.1c-1-1.5-9.5-4.7-20.1-4c-10.6,0.8-13.7,4-13.7,4l-2.7,47.1H287.3z"
								/>
							<path class="st41" d="M279.2,321.3c0,0-5.3,2.5-5.9,4.4s-2.1,19.6-2.1,19.6h41.5c0,0-2.3-20.4-4-22.2
								C307,321.5,288,319.1,279.2,321.3z"/>
							<path class="st45" d="M298.2,291.8c0.3,0,0.7,0,1,0c0.4,0.1,0.8,0.2,1.1,0.5c0.3,0.3,0.5,0.6,0.7,1c0.1,0.3,0.2,0.6,0.3,0.8
								c0.2,0.2,0.4,0.5,0.6,0.7c0.2,0.3,0.4,0.6,0.4,1s0,0.7-0.2,1c0.4,0.2,0.7,0.6,1,0.9c0.2,0.4,0.4,0.8,0.4,1.3
								c0,0.3,0,0.7,0,1.1c0.1,1.1,1,2,1.4,3s0.4,2.1,0.1,3c-0.4,1-1.1,1.8-2,2.3c0.6,0.6,1,1.5,1,2.4s-0.3,1.7-0.9,2.4
								c0.9,0.8,1.9,1.6,2.3,2.8c0.4,1.2,0.2,2.7-0.9,3.3c0.4,0.4,0.6,0.9,0.7,1.4s0,1.1-0.2,1.6s-0.6,0.9-1,1.2
								c-0.4,0.3-1,0.4-1.5,0.4c0.2,0.6,0.2,1.2,0.1,1.7c-0.1,0.6-0.4,1.1-0.8,1.6c-0.4,0.4-0.9,0.8-1.4,1s-1.1,0.2-1.7,0.1
								c0.1,1.5,0,3.1-0.3,4.6c-2.1,0.5-4.4,0.3-6.4-0.5c-0.8,0.6-1.7,1.3-2.7,1.5s-2.2-0.1-2.8-1c-0.3-0.5-0.5-1.2-1-1.4
								c-0.2-0.1-0.5-0.1-0.7-0.1H281c-0.3,0-0.5,0-0.8-0.2c-0.2-0.2-0.3-0.4-0.3-0.6c-0.3-1-0.3-2.1-0.1-3.2
								c-0.3-0.1-0.6-0.3-0.8-0.5c-0.2-0.2-0.4-0.5-0.5-0.8s-0.2-0.6-0.2-1c0-0.3,0.1-0.7,0.2-1c0.2-0.3,0.3-0.6,0.5-1
								c0.1-0.6-0.1-1.2-0.2-1.7c-0.1-0.8,0-1.6,0.5-2.3c0.2-0.2,0.3-0.5,0.4-0.8c0.1-0.4-0.2-0.8-0.4-1.1c-0.3-0.6-0.5-1.3-0.6-2
								s0-1.4,0.2-2.1c0.2-0.5,0.4-1,0.3-1.5c-0.1-0.3-0.1-0.6-0.3-0.9c-0.3-0.7-0.4-1.4-0.3-2.1c0-0.7,0.2-1.4,0.6-2.1
								c0.2-0.3,0.4-0.7,0.5-1.1c0-0.3,0-0.7-0.1-1c-0.4-1.8-0.4-3.6-0.1-5.4c0.2-1,0.5-2.1,1.4-2.5c0.2-0.1,0.4-0.2,0.5-0.3
								c0.1-0.2,0.1-0.4,0.1-0.6c0-0.4,0.1-0.8,0.3-1.1c0.2-0.4,0.4-0.7,0.7-0.9c0.3-0.3,0.6-0.4,1-0.6c0.4-0.1,0.8-0.2,1.1-0.1
								c0.5-2.1,3.2-3.3,5-2.2c0.1-0.5,0.4-1,0.8-1.4s0.9-0.6,1.5-0.7c1.3-0.1,2,1,3,1.6C295.8,290.6,297.1,291.6,298.2,291.8z"/>
							<path class="st42" d="M273.6,292.7c-0.1-0.1-0.3-0.2-0.5-0.2c-1.1-0.2-2.2,0.2-3.2,0.4c-2.5,0.5-5.1,0.3-7.6,0.2
								c-0.1,0-0.1,0-0.2,0s-0.1,0.1-0.2,0.2c-0.1,0.2-0.1,0.4-0.1,0.7c0,0.2,0.1,0.4,0.3,0.6c0.3,0.3,0.7,0.6,1.1,0.7
								c0.6,0.3,1.3,0.5,1.9,0.6c0.8,0.1,1.7,0.2,2.5,0.2c1.6,0,3.2,0,4.6-0.6c0.4-0.1,0.8-0.4,1-0.8
								C273.6,294.2,274,293.1,273.6,292.7z"/>
							<path class="st46" d="M277.4,271.4c0.3,0.4,0.6,0.9,0.8,1.3c0.8,1.6,0.9,3.5,1,5.3c0.1,1.6-0.2,3.1-0.7,4.6
								c-0.6,1.5-1.6,2.6-2.4,4c-0.7,1.2-1.2,2.5-2,3.6c-0.7,1-1.6,1.9-2.6,2.5c-1,0.7-2.2,1.1-3.4,1.2c-1.2,0.1-2.4,0-3.5-0.5
								c-1.1-0.4-2.1-1.2-2.9-2.1c-0.8-1-1.3-2.1-1.9-3.2c-0.6-0.9-1.2-1.9-1.7-2.9c-0.7-1.5-0.9-3.3-1-5c-0.2-1.7-0.1-3.3,0.1-5
								s1-3.2,2.1-4.4c0.7-0.7,1.5-1.3,2.4-1.7c1.4-0.9,2.9-1.8,4.5-2.2s3.4-0.4,4.9,0.6c0.6,0.4,1.1,0.9,1.8,1.3
								c0.6,0.4,1.4,0.5,2.1,0.8C275.9,270,276.7,270.6,277.4,271.4z"/>
							<path class="st40" d="M248.1,274.8c0,0,7,0.2,8.3,3.2c1.3,2.9,1.3,22.4,1.3,22.4h-30c0,0-0.7-20.5,0.7-22.5
								C229.8,275.8,248.1,274.8,248.1,274.8z"/>
							<path class="st41" d="M242.7,246.3c1.8,0.8,2.9,2.6,3.8,4.3c3.9,7.6,5.1,16.4,4.9,25c-0.1,2.8-0.3,5.6-1.4,8.1
								c-0.1,0.5-0.4,0.9-0.8,1.2c-0.4,0.2-0.9,0.3-1.4,0.3c-5.3,0.1-10.6-0.1-15.9-0.5c-1.8-6.7-3.6-13.6-3.6-20.6
								c0-3.7,0.5-7.4,2.1-10.7c1.6-3.3,4.5-6,7.9-6.8c2.3-0.5,5.1,0.1,6,2.3"/>
							<path class="st40" d="M73.7,274.8c0,0,7,0.2,8.3,3.2c1.3,2.9,1.3,48.4,1.3,48.4h-30c0,0-0.7-46.5,0.7-48.5
								C55.5,275.8,73.7,274.8,73.7,274.8z"/>
							<path class="st41" d="M68.4,246.3c1.8,0.8,2.9,2.6,3.8,4.3c3.9,7.6,5.1,16.4,4.9,25c-0.1,2.8-0.3,5.6-1.4,8.1
								c-0.1,0.5-0.4,0.9-0.8,1.2c-0.4,0.2-0.9,0.3-1.4,0.3c-5.3,0.1-10.6-0.1-15.9-0.5c-1.8-6.7-3.6-13.6-3.6-20.6
								c0-3.7,0.5-7.4,2.1-10.7c1.6-3.3,4.5-6,7.9-6.8c2.3-0.5,5.1,0.1,6,2.3"/>
							<path class="st43" d="M127,325.5c0,0-1.3-45.5-2.3-47.1s-9.5-4.7-20.1-4c-10.6,0.8-13.7,4-13.7,4l-2.7,47.1H127z"/>
							<path class="st41" d="M119,301.5c0,0-5.3,2.5-5.9,4.4s-2.1,19.6-2.1,19.6h41.5c0,0-2.3-20.4-4-22.2
								C146.8,301.7,127.8,299.3,119,301.5z"/>
							<path class="st44" d="M138,272c0.3,0,0.7,0,1,0c0.4,0.1,0.8,0.2,1.1,0.5s0.5,0.6,0.7,1c0.1,0.3,0.2,0.6,0.3,0.8
								c0.2,0.3,0.4,0.5,0.6,0.7c0.2,0.3,0.4,0.6,0.4,1s0,0.7-0.2,1c0.4,0.2,0.7,0.6,1,0.9c0.2,0.4,0.4,0.8,0.4,1.3
								c0,0.3,0,0.7,0,1.1c0.1,1.1,1,2,1.4,3s0.4,2.1,0.1,3c-0.4,1-1.1,1.8-2,2.3c0.6,0.6,1,1.5,1,2.4s-0.3,1.7-0.9,2.4
								c0.9,0.8,1.9,1.6,2.3,2.8c0.4,1.2,0.2,2.7-0.9,3.3c0.4,0.4,0.6,0.9,0.7,1.4c0.1,0.5,0,1.1-0.2,1.6s-0.6,0.9-1,1.2
								c-0.4,0.3-1,0.4-1.5,0.4c0.2,0.6,0.2,1.2,0.1,1.8c-0.1,0.6-0.4,1.1-0.8,1.6c-0.4,0.4-0.9,0.8-1.4,1s-1.1,0.2-1.7,0.1
								c0.1,1.5,0,3.1-0.3,4.6c-2.1,0.5-4.4,0.3-6.4-0.5c-0.8,0.6-1.7,1.3-2.7,1.5s-2.2-0.1-2.8-1c-0.3-0.5-0.5-1.2-1-1.4
								c-0.2-0.1-0.5-0.1-0.7-0.1h-3.7c-0.3,0-0.5,0-0.8-0.2c-0.2-0.2-0.3-0.4-0.3-0.6c-0.3-1-0.3-2.1-0.1-3.2
								c-0.3-0.1-0.6-0.3-0.8-0.5c-0.2-0.2-0.4-0.5-0.5-0.8s-0.2-0.6-0.2-1c0-0.3,0.1-0.7,0.2-1c0.2-0.3,0.3-0.6,0.5-1
								c0.1-0.6-0.1-1.2-0.2-1.7c-0.1-0.8,0-1.6,0.5-2.3c0.2-0.2,0.3-0.5,0.4-0.8c0.1-0.4-0.2-0.8-0.4-1.1c-0.3-0.6-0.5-1.3-0.6-2
								s0-1.4,0.2-2.1c0.2-0.5,0.4-1,0.3-1.5c-0.1-0.3-0.1-0.6-0.3-0.9c-0.3-0.7-0.4-1.4-0.3-2.1c0-0.7,0.2-1.4,0.6-2.1
								c0.2-0.3,0.4-0.7,0.5-1.1c0-0.3,0-0.7-0.1-1c-0.4-1.8-0.4-3.6-0.1-5.4c0.2-1,0.5-2.1,1.4-2.5c0.2-0.1,0.4-0.2,0.5-0.3
								c0.1-0.2,0.1-0.4,0.1-0.6c0-0.4,0.1-0.8,0.3-1.1c0.2-0.4,0.4-0.7,0.7-0.9c0.3-0.3,0.6-0.4,1-0.6c0.4-0.1,0.8-0.2,1.1-0.1
								c0.5-2.1,3.2-3.3,5-2.2c0.1-0.5,0.4-1,0.8-1.4c0.4-0.4,0.9-0.6,1.5-0.6c1.3-0.1,2,1,3,1.6C135.6,270.8,136.9,271.8,138,272z"
								/>
							<path class="st42" d="M113.4,272.9c-0.1-0.1-0.3-0.2-0.5-0.2c-1.1-0.2-2.2,0.2-3.2,0.4c-2.5,0.5-5.1,0.3-7.6,0.2
								c-0.1,0-0.1,0-0.2,0s-0.1,0.1-0.2,0.2c-0.1,0.2-0.1,0.4-0.1,0.7c0,0.2,0.1,0.4,0.3,0.6c0.3,0.3,0.7,0.6,1.1,0.7
								c0.6,0.3,1.3,0.5,1.9,0.6c0.8,0.1,1.7,0.2,2.5,0.2c1.6,0,3.2,0,4.6-0.6c0.4-0.1,0.8-0.4,1-0.8
								C113.4,274.4,113.8,273.3,113.4,272.9z"/>
							<path class="st44" d="M117.1,251.6c0.3,0.4,0.6,0.9,0.8,1.3c0.8,1.6,0.9,3.5,1,5.3c0.1,1.6-0.2,3.1-0.7,4.6
								c-0.6,1.5-1.6,2.6-2.4,4c-0.7,1.2-1.2,2.5-2,3.6c-0.7,1-1.6,1.9-2.6,2.5c-1,0.7-2.2,1.1-3.4,1.2c-1.2,0.1-2.4,0-3.5-0.5
								c-1.1-0.4-2.1-1.2-2.9-2.1c-0.8-1-1.3-2.1-1.9-3.2c-0.6-0.9-1.2-1.9-1.7-2.9c-0.7-1.6-0.9-3.3-1-5c-0.2-1.7-0.1-3.3,0.1-5
								s1-3.2,2.1-4.4c0.7-0.7,1.5-1.3,2.4-1.7c1.4-0.9,2.9-1.8,4.5-2.2c1.6-0.4,3.4-0.4,4.9,0.6c0.6,0.4,1.1,0.9,1.8,1.3
								c0.6,0.4,1.4,0.5,2.1,0.8C115.7,250.2,116.5,250.8,117.1,251.6z"/>
							<path class="st40" d="M30.5,274.8c0,0,7,0.2,8.3,3.2c1.3,2.9,1.3,48.7,1.3,48.7l-30-26.3c0,0-0.7-20.5,0.7-22.5
								C12.3,275.8,30.5,274.8,30.5,274.8z"/>
							<path class="st41" d="M25.2,246.3c1.8,0.8,2.9,2.6,3.8,4.3c3.9,7.6,5.1,16.4,4.9,25c-0.1,2.8-0.3,5.6-1.4,8.1
								c-0.1,0.5-0.4,0.9-0.8,1.2c-0.4,0.2-0.9,0.3-1.4,0.3c-5.3,0.1-10.6-0.1-15.9-0.5c-1.8-6.7-3.6-13.6-3.6-20.6
								c0-3.7,0.5-7.4,2.1-10.7c1.6-3.3,4.5-6,7.9-6.8c2.3-0.5,5.1,0.1,6,2.3"/>
							<path class="st43" d="M244.1,345.4c0,0-1.3-45.5-2.3-47.1c-1-1.5-9.5-4.7-20.1-4c-10.6,0.8-13.7,4-13.7,4l-2.7,47.1H244.1z"
								/>
							<path class="st41" d="M236.1,321.3c0,0-5.3,2.5-5.9,4.4c-0.6,1.9-2.1,19.6-2.1,19.6h41.5c0,0-2.3-20.4-4-22.2
								C263.9,321.5,244.9,319.1,236.1,321.3z"/>
							<path class="st44" d="M255,291.8c0.3,0,0.7,0,1,0c0.4,0.1,0.8,0.2,1.1,0.5c0.3,0.3,0.5,0.6,0.7,1c0.1,0.3,0.2,0.6,0.3,0.8
								c0.2,0.2,0.4,0.5,0.6,0.7c0.2,0.3,0.4,0.6,0.4,1s0,0.7-0.2,1c0.4,0.2,0.7,0.6,1,0.9c0.2,0.4,0.4,0.8,0.4,1.3
								c0,0.3,0,0.7,0,1.1c0.1,1.1,1,2,1.4,3s0.4,2.1,0.1,3c-0.4,1-1.1,1.8-2,2.3c0.6,0.6,1,1.5,1,2.4s-0.3,1.7-0.9,2.4
								c0.9,0.8,1.9,1.6,2.3,2.8c0.4,1.2,0.2,2.7-0.9,3.3c0.4,0.4,0.6,0.9,0.7,1.4s0,1.1-0.2,1.6s-0.6,0.9-1,1.2
								c-0.4,0.3-1,0.4-1.5,0.4c0.2,0.6,0.2,1.2,0.1,1.8c-0.1,0.6-0.4,1.1-0.8,1.6c-0.4,0.4-0.9,0.8-1.4,1s-1.1,0.2-1.7,0.1
								c0.1,1.5,0,3.1-0.3,4.6c-2.1,0.5-4.4,0.3-6.4-0.5c-0.8,0.6-1.7,1.3-2.7,1.5s-2.2-0.1-2.8-1c-0.3-0.5-0.5-1.2-1-1.4
								c-0.2-0.1-0.5-0.1-0.7-0.1h-3.7c-0.3,0-0.5,0-0.8-0.2c-0.2-0.2-0.3-0.4-0.3-0.6c-0.3-1-0.3-2.1-0.1-3.2
								c-0.3-0.1-0.6-0.3-0.8-0.5s-0.4-0.5-0.5-0.8s-0.2-0.6-0.2-1c0-0.3,0.1-0.7,0.2-1c0.2-0.3,0.3-0.6,0.5-1
								c0.1-0.6-0.1-1.2-0.2-1.7c-0.1-0.8,0-1.6,0.5-2.3c0.2-0.2,0.3-0.5,0.4-0.8c0.1-0.4-0.2-0.8-0.4-1.1c-0.3-0.6-0.5-1.3-0.6-2
								s0-1.4,0.2-2.1c0.2-0.5,0.4-1,0.3-1.5c-0.1-0.3-0.1-0.6-0.3-0.9c-0.3-0.7-0.4-1.4-0.3-2.1c0-0.7,0.2-1.4,0.6-2.1
								c0.2-0.3,0.4-0.7,0.5-1.1c0-0.3,0-0.7-0.1-1c-0.4-1.8-0.4-3.6-0.1-5.4c0.2-1,0.5-2.1,1.4-2.5c0.2-0.1,0.4-0.2,0.5-0.3
								c0.1-0.2,0.1-0.4,0.1-0.6c0-0.4,0.1-0.8,0.3-1.1c0.2-0.4,0.4-0.7,0.7-0.9c0.3-0.3,0.6-0.4,1-0.6c0.4-0.1,0.8-0.2,1.1-0.1
								c0.5-2.1,3.2-3.3,5-2.2c0.1-0.5,0.4-1,0.8-1.4c0.4-0.4,0.9-0.6,1.5-0.6c1.3-0.1,2,1,3,1.6C252.7,290.6,254,291.6,255,291.8z"
								/>
							<path class="st42" d="M230.5,292.7c-0.1-0.1-0.3-0.2-0.5-0.2c-1.1-0.2-2.2,0.2-3.2,0.4c-2.5,0.5-5.1,0.3-7.6,0.2
								c-0.1,0-0.1,0-0.2,0c-0.1,0-0.1,0.1-0.2,0.2c-0.1,0.2-0.1,0.4-0.1,0.7c0,0.2,0.1,0.4,0.3,0.6c0.3,0.3,0.7,0.6,1.1,0.7
								c0.6,0.3,1.3,0.5,1.9,0.6c0.8,0.1,1.7,0.2,2.5,0.2c1.6,0,3.2,0,4.6-0.6c0.4-0.1,0.8-0.4,1-0.8
								C230.4,294.2,230.9,293.1,230.5,292.7z"/>
							<path class="st44" d="M234.2,271.4c0.3,0.4,0.6,0.9,0.8,1.3c0.8,1.6,0.9,3.5,1,5.3c0.1,1.6-0.2,3.1-0.7,4.6
								c-0.6,1.5-1.6,2.6-2.4,4c-0.7,1.2-1.2,2.5-2,3.6c-0.7,1-1.6,1.9-2.6,2.5c-1,0.7-2.2,1.1-3.4,1.2s-2.4,0-3.5-0.5
								s-2.1-1.2-2.9-2.1c-0.8-1-1.3-2.1-1.9-3.2c-0.6-0.9-1.2-1.9-1.7-2.9c-0.7-1.5-0.9-3.3-1-5c-0.2-1.7-0.1-3.3,0.1-5
								c0.2-1.7,1-3.2,2.1-4.4c0.7-0.7,1.5-1.3,2.4-1.7c1.4-0.9,2.9-1.8,4.5-2.2c1.6-0.4,3.4-0.4,4.9,0.6c0.6,0.4,1.1,0.9,1.8,1.3
								c0.6,0.4,1.4,0.5,2.1,0.8C232.8,270,233.6,270.6,234.2,271.4z"/>
							<path class="st40" d="M213.4,319c0,0,7,0.2,8.3,3.2c1.3,2.9,1.3,23.2,1.3,23.2h-30c0,0-0.7-21.3,0.7-23.3
								C195.2,320.1,213.4,319,213.4,319z"/>
							<path class="st41" d="M204.6,289.8c1.4-0.4,3-0.3,4.3,0.4c0.7,0.4,1,1.1,1.6,1.6c0.5,0.3,1.3-0.1,1.7,0.6
								c0.5,0.7,0.8,1.9,1.2,2.7c0.5,1,0.9,2.1,1.3,3.2c0.8,2.2,1.4,4.4,1.8,6.7c0.9,4.5,1.2,9.1,1,13.7c-0.1,2.8-0.3,5.6-1.4,8.1
								c-1.1,2.8-6.2,2-8.5,2c-3.9-0.1-7.9-0.3-11.8-0.6c-0.9-9-0.7-18,0.5-26.9c0.3-2,0.6-4,1.5-5.8
								C199.2,293.1,201.8,290.6,204.6,289.8z"/>
							<path class="st40" d="M319.4,373.2c0,0,7,0.2,8.3,3.1s1.3,23.2,1.3,23.2h-30c0,0-0.7-21.3,0.7-23.3
								C301.2,374.3,319.4,373.2,319.4,373.2z"/>
							<path class="st41" d="M310.6,344c1.4-0.4,3-0.3,4.3,0.4c0.7,0.4,1,1.2,1.6,1.6c0.5,0.3,1.3-0.1,1.7,0.6
								c0.5,0.7,0.8,1.9,1.2,2.7c0.5,1,0.9,2.1,1.3,3.2c0.8,2.2,1.4,4.4,1.8,6.7c0.9,4.5,1.2,9.1,1,13.7c-0.1,2.8-0.3,5.6-1.4,8.1
								c-1.1,2.8-6.2,2-8.5,2c-3.9-0.1-7.9-0.3-11.8-0.6c-0.9-9-0.7-18,0.5-26.9c0.3-2,0.6-4,1.5-5.8
								C305.2,347.2,307.8,344.8,310.6,344z"/>
							<path class="st40" d="M291.2,352.2c0,0,7,0.2,8.3,3.2c1.3,2.9,1.3,22.4,1.3,22.4h-30c0,0-0.7-20.5,0.7-22.5
								C273,353.2,291.2,352.2,291.2,352.2z"/>
							<path class="st41" d="M275.2,362.2c-0.9-3.4-2.4-7.3-2.5-10.8c0-3.1-1.9-5.1-2.9-7.9c-0.8-2.2-0.8-4.6-0.7-7
								c0-2.3,0.1-4.9,1.2-7c0.7-1.3,1.7-2.3,2.8-3.3c1.3-1.2,2.5-2.4,4.1-3.2c1.6-0.8,3.4-1,5-0.1c0.5,0.3,1,0.7,1.5,1
								c1.9,1.4,4.8,2,6.2,4.1c1.5,2.3,2.4,5.4,3.1,8.1c1.5,5.5,2,11.3,1.8,17c-0.1,2.8-0.3,5.6-1.4,8.1c-0.1,0.5-0.4,0.9-0.8,1.2
								c-0.4,0.2-0.9,0.4-1.4,0.3C285.7,362.8,280.4,362.6,275.2,362.2z"/>
							<path class="st43" d="M287.3,422.7c0,0-1.3-45.5-2.3-47.1s-9.5-4.7-20.1-4c-10.6,0.8-13.7,4-13.7,4l-2.7,47.1H287.3z"/>
							<path class="st41" d="M279.2,398.7c0,0-5.3,2.5-5.9,4.4s-2.1,19.6-2.1,19.6h41.5c0,0-2.3-20.4-4-22.2
								C307,398.8,288,396.5,279.2,398.7z"/>
							<path class="st44" d="M298.2,369.2c0.3,0,0.7,0,1,0.1c0.4,0.1,0.8,0.2,1.1,0.5c0.3,0.3,0.5,0.6,0.7,1
								c0.1,0.3,0.2,0.6,0.3,0.8c0.2,0.2,0.4,0.5,0.6,0.7c0.2,0.3,0.4,0.6,0.4,1s0,0.7-0.2,1c0.4,0.2,0.7,0.6,1,0.9
								c0.2,0.4,0.4,0.8,0.4,1.3c0,0.3,0,0.7,0,1.1c0.1,1.1,1,2,1.4,3s0.4,2.1,0.1,3c-0.4,1-1.1,1.8-2,2.3c0.6,0.6,1,1.5,1,2.4
								s-0.3,1.8-0.9,2.4c0.9,0.8,1.9,1.6,2.3,2.8c0.4,1.2,0.2,2.7-0.9,3.3c0.4,0.4,0.6,0.9,0.7,1.4s0,1.1-0.2,1.6s-0.6,0.9-1,1.2
								c-0.4,0.3-1,0.4-1.5,0.4c0.2,0.6,0.2,1.2,0.1,1.7c-0.1,0.6-0.4,1.1-0.8,1.6c-0.4,0.4-0.9,0.8-1.4,1s-1.1,0.2-1.7,0.1
								c0.1,1.5,0,3.1-0.3,4.6c-2.1,0.5-4.4,0.3-6.4-0.5c-0.8,0.6-1.7,1.3-2.7,1.5s-2.2-0.1-2.8-1c-0.3-0.5-0.5-1.2-1-1.4
								c-0.2-0.1-0.5-0.1-0.7-0.1H281c-0.3,0-0.5,0-0.8-0.2c-0.2-0.2-0.3-0.4-0.3-0.6c-0.3-1-0.3-2.1-0.1-3.2
								c-0.3-0.1-0.6-0.3-0.8-0.5c-0.2-0.2-0.4-0.5-0.5-0.8s-0.2-0.6-0.2-1c0-0.3,0.1-0.7,0.2-1c0.2-0.3,0.3-0.6,0.5-1
								c0.1-0.6-0.1-1.2-0.2-1.7c-0.1-0.8,0-1.6,0.5-2.3c0.2-0.2,0.3-0.5,0.4-0.8c0.1-0.4-0.2-0.8-0.4-1.1c-0.3-0.6-0.5-1.3-0.6-2
								s0-1.4,0.2-2.1c0.2-0.5,0.4-1,0.3-1.5c-0.1-0.3-0.1-0.6-0.3-0.9c-0.3-0.7-0.4-1.4-0.3-2.1c0-0.7,0.2-1.4,0.6-2.1
								c0.2-0.3,0.4-0.7,0.5-1.1c0-0.3,0-0.7-0.1-1c-0.4-1.8-0.4-3.6-0.1-5.4c0.2-1,0.5-2.1,1.4-2.5c0.2-0.1,0.4-0.2,0.5-0.3
								c0.1-0.2,0.1-0.4,0.1-0.6c0-0.4,0.1-0.8,0.3-1.1c0.2-0.4,0.4-0.7,0.7-0.9c0.3-0.3,0.6-0.4,1-0.6c0.4-0.1,0.8-0.2,1.1-0.1
								c0.5-2.1,3.2-3.3,5-2.2c0.1-0.5,0.4-1,0.8-1.4s0.9-0.6,1.5-0.7c1.3-0.1,2,1,3,1.6C295.8,368,297.1,369,298.2,369.2z"/>
							<path class="st42" d="M273.6,370.1c-0.1-0.1-0.3-0.2-0.5-0.2c-1.1-0.2-2.2,0.2-3.2,0.4c-2.5,0.5-5.1,0.3-7.6,0.2
								c-0.1,0-0.1,0-0.2,0s-0.1,0.1-0.2,0.2c-0.1,0.2-0.1,0.4-0.1,0.7c0,0.2,0.1,0.4,0.3,0.6c0.3,0.3,0.7,0.6,1.1,0.7
								c0.6,0.3,1.3,0.5,1.9,0.6c0.8,0.1,1.7,0.2,2.5,0.2c1.6,0,3.2,0,4.6-0.6c0.4-0.1,0.8-0.4,1-0.8
								C273.6,371.6,274,370.5,273.6,370.1z"/>
							<path class="st44" d="M277.4,348.8c0.3,0.4,0.6,0.9,0.8,1.3c0.8,1.6,0.9,3.5,1,5.3c0.1,1.6-0.2,3.1-0.7,4.6
								c-0.6,1.5-1.6,2.6-2.4,4c-0.7,1.2-1.2,2.5-2,3.6c-0.7,1-1.6,1.9-2.6,2.6s-2.2,1.1-3.4,1.2c-1.2,0.1-2.4,0-3.5-0.5
								s-2.1-1.2-2.9-2.1c-0.8-1-1.3-2.1-1.9-3.2c-0.6-0.9-1.2-1.9-1.7-2.8c-0.7-1.5-0.9-3.3-1-5c-0.2-1.7-0.1-3.3,0.1-5
								s1-3.2,2.1-4.4c0.7-0.7,1.5-1.3,2.4-1.7c1.4-0.9,2.9-1.8,4.5-2.2c1.6-0.4,3.4-0.4,4.9,0.6c0.6,0.4,1.1,0.9,1.8,1.3
								c0.6,0.4,1.4,0.5,2.1,0.8C275.9,347.5,276.7,348,277.4,348.8z"/>
							<path class="st40" d="M248.1,352.2c0,0,7,0.2,8.3,3.2c1.3,2.9,1.3,22.4,1.3,22.4h-30c0,0-0.7-20.5,0.7-22.5
								C229.8,353.2,248.1,352.2,248.1,352.2z"/>
							<path class="st41" d="M242.7,323.7c1.8,0.8,2.9,2.6,3.8,4.3c3.9,7.6,5.1,16.4,4.9,25c-0.1,2.8-0.3,5.6-1.4,8.1
								c-0.1,0.5-0.4,0.9-0.8,1.2c-0.4,0.2-0.9,0.3-1.4,0.3c-5.3,0.1-10.6-0.1-15.9-0.5c-1.8-6.7-3.6-13.6-3.6-20.6
								c0-3.7,0.5-7.4,2.1-10.7c1.6-3.3,4.5-6,7.9-6.8c2.3-0.5,5.1,0.1,6,2.3"/>
							<path class="st43" d="M236,417.9c0,0-1.3-45.5-2.3-47.1s-9.5-4.7-20.1-4c-10.6,0.8-13.7,4-13.7,4l-2.7,47.1H236z"/>
							<path class="st41" d="M228,393.9c0,0-5.3,2.5-5.9,4.4c-0.6,1.9-2.1,19.6-2.1,19.6h41.5c0,0-2.3-20.4-4-22.2
								C255.8,394,236.8,391.7,228,393.9z"/>
							<path class="st44" d="M246.9,364.3c0.3,0.1,0.7,0,1,0.1c0.4,0.1,0.8,0.2,1.1,0.5s0.6,0.6,0.7,1c0.1,0.3,0.2,0.6,0.3,0.8
								c0.2,0.2,0.4,0.5,0.6,0.7c0.2,0.3,0.4,0.6,0.4,1s0,0.7-0.2,1c0.4,0.2,0.7,0.6,1,0.9c0.2,0.4,0.4,0.8,0.4,1.3
								c0,0.3,0,0.7,0,1.1c0.1,1.1,1,2,1.4,3s0.4,2.1,0.1,3c-0.4,1-1.1,1.8-2,2.3c0.6,0.6,1,1.5,1,2.4s-0.3,1.8-0.9,2.4
								c0.9,0.8,1.9,1.6,2.3,2.8c0.4,1.2,0.2,2.7-0.9,3.3c0.4,0.4,0.6,0.9,0.7,1.4c0.1,0.5,0,1.1-0.2,1.6s-0.6,0.9-1,1.2
								c-0.4,0.3-1,0.4-1.5,0.4c0.2,0.6,0.2,1.2,0.1,1.8c-0.1,0.6-0.4,1.1-0.8,1.6c-0.4,0.4-0.9,0.8-1.4,1s-1.1,0.2-1.7,0.1
								c0.1,1.5,0,3.1-0.3,4.6c-2.1,0.5-4.4,0.3-6.4-0.5c-0.8,0.6-1.7,1.3-2.7,1.5s-2.2-0.1-2.8-1c-0.3-0.5-0.5-1.2-1-1.4
								c-0.2-0.1-0.5-0.1-0.7-0.1h-3.7c-0.3,0-0.5,0-0.8-0.2c-0.2-0.2-0.3-0.4-0.3-0.6c-0.3-1-0.3-2.1-0.1-3.2
								c-0.3-0.1-0.6-0.3-0.8-0.5s-0.4-0.5-0.5-0.8s-0.2-0.6-0.2-1c0-0.3,0.1-0.7,0.2-1c0.2-0.3,0.3-0.6,0.5-1
								c0.1-0.6-0.1-1.2-0.2-1.7c-0.1-0.8,0-1.6,0.5-2.3c0.2-0.2,0.3-0.5,0.4-0.8c0.1-0.4-0.2-0.8-0.4-1.1c-0.3-0.6-0.5-1.3-0.6-2
								s0-1.4,0.2-2.1c0.2-0.5,0.4-1,0.3-1.5c-0.1-0.3-0.1-0.6-0.3-0.9c-0.3-0.7-0.4-1.4-0.3-2.1c0-0.7,0.2-1.4,0.6-2.1
								c0.2-0.3,0.4-0.7,0.5-1.1c0-0.3,0-0.7-0.1-1c-0.4-1.8-0.4-3.6-0.1-5.4c0.2-1,0.5-2.1,1.4-2.5c0.2-0.1,0.4-0.2,0.5-0.3
								c0.1-0.2,0.1-0.4,0.1-0.6c0-0.4,0.1-0.8,0.3-1.1c0.2-0.4,0.4-0.7,0.7-0.9c0.3-0.3,0.6-0.4,1-0.6s0.8-0.2,1.1-0.1
								c0.5-2.1,3.2-3.3,5-2.2c0.1-0.5,0.4-1,0.8-1.4c0.4-0.4,0.9-0.6,1.5-0.7c1.3-0.1,2,1,3,1.6
								C244.6,363.1,245.9,364.2,246.9,364.3z"/>
							<path class="st42" d="M222.4,365.2c-0.1-0.1-0.3-0.2-0.5-0.2c-1.1-0.2-2.2,0.2-3.2,0.4c-2.5,0.5-5.1,0.3-7.6,0.2
								c-0.1,0-0.1,0-0.2,0c-0.1,0-0.1,0.1-0.2,0.2c-0.1,0.2-0.1,0.4-0.1,0.7c0,0.2,0.1,0.4,0.3,0.6c0.3,0.3,0.7,0.6,1.1,0.7
								c0.6,0.3,1.3,0.5,1.9,0.6c0.8,0.1,1.7,0.2,2.5,0.2c1.6,0,3.2,0,4.6-0.6c0.4-0.1,0.8-0.4,1-0.8
								C222.3,366.7,222.8,365.7,222.4,365.2z"/>
							<path class="st44" d="M226.1,344c0.3,0.4,0.6,0.9,0.8,1.3c0.8,1.6,0.9,3.5,1,5.3c0.1,1.6-0.2,3.1-0.7,4.6
								c-0.6,1.5-1.6,2.6-2.4,4c-0.7,1.2-1.2,2.5-2,3.6c-0.7,1-1.6,1.9-2.6,2.6s-2.2,1.1-3.4,1.2s-2.4,0-3.5-0.5s-2.1-1.2-2.9-2.1
								c-0.8-1-1.3-2.1-1.9-3.2c-0.6-0.9-1.2-1.9-1.7-2.9c-0.7-1.6-0.9-3.3-1-5c-0.2-1.7-0.1-3.3,0.1-5c0.2-1.7,1-3.2,2.1-4.4
								c0.7-0.7,1.5-1.3,2.4-1.7c1.4-0.9,2.9-1.8,4.5-2.2c1.6-0.4,3.4-0.4,4.9,0.6c0.6,0.4,1.1,0.9,1.7,1.3c0.6,0.4,1.4,0.5,2.1,0.8
								C224.7,342.6,225.5,343.2,226.1,344z"/>
							<path class="st40" d="M213.4,396.4c0,0,7,0.2,8.3,3.2c1.3,2.9,1.3,23.2,1.3,23.2h-30c0,0-0.7-21.3,0.7-23.3
								C195.2,397.5,213.4,396.4,213.4,396.4z"/>
							<path class="st41" d="M204.6,367.2c1.4-0.4,3-0.3,4.3,0.4c0.7,0.4,1,1.2,1.6,1.6c0.5,0.3,1.3-0.1,1.7,0.6
								c0.5,0.7,0.8,1.9,1.2,2.7c0.5,1,0.9,2.1,1.3,3.2c0.8,2.2,1.4,4.4,1.8,6.7c0.9,4.5,1.2,9.1,1,13.7c-0.1,2.8-0.3,5.6-1.4,8.1
								c-1.1,2.8-6.2,2-8.5,2c-3.9-0.1-7.9-0.3-11.8-0.6c-0.9-9-0.7-18,0.5-26.9c0.3-2,0.6-4,1.5-5.8
								C199.2,370.5,201.8,368,204.6,367.2z"/>
							<path class="st40" d="M211.6,319.1c0,0,7,0.2,8.3,3.2c1.3,2.9,1.3,23.2,1.3,23.2h-30c0,0-0.7-21.3,0.7-23.3
								C193.4,320.1,211.6,319.1,211.6,319.1z"/>
							<path class="st41" d="M202.8,289.8c1.4-0.4,3-0.3,4.3,0.4c0.7,0.4,1,1.1,1.6,1.6c0.5,0.3,1.3-0.1,1.7,0.6
								c0.5,0.7,0.8,1.9,1.2,2.7c0.5,1,0.9,2.1,1.3,3.2c0.8,2.2,1.4,4.4,1.8,6.7c0.9,4.5,1.2,9.1,1,13.7c-0.1,2.8-0.4,5.6-1.4,8.1
								c-1.1,2.8-6.2,2-8.5,2c-3.9-0.1-7.9-0.3-11.8-0.6c-0.9-9-0.7-18,0.5-26.9c0.3-2,0.6-4,1.5-5.8
								C197.5,293.1,200,290.6,202.8,289.8z"/>
							<path class="st40" d="M183.5,298c0,0,7,0.2,8.3,3.2c1.3,2.9,1.3,22.4,1.3,22.4h-30c0,0-0.7-20.5,0.7-22.5
								S183.5,298,183.5,298z"/>
							<path class="st46" d="M163.8,287.4c0-3.7,0.5-7.4,2.1-10.7c3.2-6.5,12.8-11.3,16.6-2.6c1.5,3.5,1.3,7.5,0.9,11.3
								c-0.4,3.8-0.7,7.8,0.6,11.3c0.8,2.2,2.3,4.1,2.7,6.4c0.8,4.3-2.3,8.4-5.7,11.1c-2.1,1.7-4.5,3.2-7.1,3
								c-2.9-0.2-5.3-2.6-6.4-5.3c-1.3-3.4-0.8-7-1.8-10.5C164.5,296.9,163.8,292.2,163.8,287.4z"/>
							<path class="st40" d="M96.8,303.1c0,0,7,0.2,8.3,3.2c1.3,2.9,1.3,22.4,1.3,22.4h-30c0,0-0.7-20.5,0.7-22.5
								C78.6,304.2,96.8,303.1,96.8,303.1z"/>
							<path class="st41" d="M91.5,274.7c1.8,0.8,2.9,2.6,3.8,4.3c3.9,7.6,5.1,16.4,4.9,25c-0.1,2.8-0.3,5.6-1.4,8.1
								c-0.1,0.5-0.4,0.9-0.8,1.2c-0.4,0.2-0.9,0.4-1.4,0.3c-5.3,0.1-10.6-0.1-15.9-0.5c-1.8-6.7-3.6-13.6-3.6-20.6
								c0-3.7,0.5-7.4,2.1-10.7c1.6-3.3,4.5-6,7.9-6.8c2.3-0.5,5.1,0.1,6,2.3"/>
							<path class="st43" d="M179.5,368.6c0,0-1.3-45.5-2.3-47.1s-9.5-4.7-20.1-4c-10.6,0.8-13.7,4-13.7,4l-2.7,47.1H179.5z"/>
							<path class="st41" d="M171.5,344.6c0,0-5.3,2.5-5.9,4.4c-0.6,1.9-2.1,19.6-2.1,19.6H205c0,0-2.3-20.4-4-22.2
								C199.3,344.7,180.3,342.4,171.5,344.6z"/>
							<path class="st44" d="M190.4,315c0.3,0,0.7,0,1,0c0.4,0.1,0.8,0.2,1.1,0.5s0.5,0.6,0.7,1c0.1,0.3,0.2,0.6,0.3,0.8
								c0.2,0.3,0.4,0.5,0.6,0.7c0.2,0.3,0.4,0.6,0.4,1s0,0.7-0.2,1c0.4,0.2,0.7,0.6,1,0.9c0.2,0.4,0.4,0.8,0.4,1.3
								c0,0.3,0,0.7,0,1.1c0.1,1.1,1,2,1.4,3s0.4,2.1,0.1,3c-0.4,1-1.1,1.8-2,2.3c0.6,0.6,1,1.5,1,2.4s-0.3,1.7-0.9,2.4
								c0.9,0.8,1.9,1.6,2.3,2.8c0.4,1.2,0.2,2.7-0.9,3.3c0.4,0.4,0.6,0.9,0.7,1.4c0.1,0.5,0,1.1-0.2,1.6s-0.6,0.9-1,1.2
								c-0.4,0.3-1,0.4-1.5,0.4c0.2,0.6,0.2,1.2,0,1.7c-0.1,0.6-0.4,1.1-0.8,1.5c-0.4,0.4-0.9,0.8-1.4,1s-1.1,0.2-1.7,0.1
								c0.1,1.5,0,3.1-0.3,4.6c-2.1,0.5-4.4,0.3-6.4-0.5c-0.8,0.6-1.7,1.3-2.7,1.5s-2.2-0.1-2.8-1c-0.3-0.5-0.5-1.2-1-1.4
								c-0.2-0.1-0.5-0.1-0.7-0.1h-3.7c-0.3,0-0.5,0-0.8-0.2c-0.2-0.2-0.3-0.4-0.3-0.6c-0.3-1-0.3-2.1-0.1-3.2
								c-0.3-0.1-0.6-0.3-0.8-0.5s-0.4-0.5-0.5-0.8s-0.2-0.6-0.2-1c0-0.3,0.1-0.7,0.2-1c0.2-0.3,0.3-0.6,0.5-1
								c0.1-0.6-0.1-1.2-0.2-1.7c-0.1-0.8,0-1.6,0.5-2.3c0.2-0.2,0.3-0.5,0.4-0.8c0.1-0.4-0.2-0.8-0.4-1.1c-0.3-0.6-0.5-1.3-0.6-2
								s0-1.4,0.2-2.1c0.2-0.5,0.4-1,0.3-1.5c-0.1-0.3-0.1-0.6-0.3-0.9c-0.3-0.7-0.4-1.4-0.3-2.1c0-0.7,0.2-1.4,0.6-2.1
								c0.2-0.3,0.4-0.7,0.5-1.1c0-0.3,0-0.7-0.1-1c-0.4-1.8-0.4-3.6-0.1-5.4c0.2-1,0.5-2.1,1.4-2.5c0.2-0.1,0.4-0.2,0.5-0.3
								c0.1-0.2,0.1-0.4,0.1-0.6c0-0.4,0.1-0.8,0.3-1.1c0.2-0.4,0.4-0.7,0.7-0.9c0.3-0.3,0.6-0.4,1-0.6c0.4-0.1,0.8-0.2,1.1-0.1
								c0.5-2.1,3.2-3.3,5-2.2c0.1-0.5,0.4-1,0.8-1.4c0.4-0.4,0.9-0.6,1.5-0.7c1.3-0.1,2,1,3,1.6C188.1,313.8,189.4,314.9,190.4,315
								z"/>
							<path class="st42" d="M165.9,315.9c-0.1-0.1-0.3-0.2-0.5-0.2c-1.1-0.2-2.2,0.2-3.2,0.4c-2.5,0.5-5.1,0.3-7.6,0.2
								c-0.1,0-0.1,0-0.2,0c-0.1,0-0.1,0.1-0.2,0.2c-0.1,0.2-0.1,0.4-0.1,0.7c0,0.2,0.1,0.4,0.3,0.6c0.3,0.3,0.7,0.6,1.1,0.7
								c0.6,0.3,1.3,0.5,1.9,0.6c0.8,0.1,1.7,0.2,2.5,0.2c1.6,0,3.2,0,4.6-0.6c0.4-0.1,0.8-0.4,1-0.8
								C165.8,317.4,166.3,316.4,165.9,315.9z"/>
							<path class="st41" d="M169.6,294.7c0.3,0.4,0.6,0.9,0.8,1.3c0.8,1.6,0.9,3.5,1,5.3c0.1,1.6-0.2,3.1-0.7,4.6
								c-0.6,1.5-1.6,2.6-2.4,4c-0.7,1.2-1.2,2.5-2,3.6c-0.7,1-1.6,1.9-2.6,2.6s-2.2,1.1-3.4,1.2s-2.4,0-3.5-0.5s-2.1-1.2-2.9-2.1
								c-0.8-1-1.3-2.1-1.9-3.2c-0.6-0.9-1.2-1.9-1.7-2.9c-0.7-1.5-0.9-3.3-1-5c-0.2-1.7-0.1-3.3,0.1-5c0.2-1.7,1-3.2,2.1-4.4
								c0.7-0.7,1.5-1.3,2.4-1.7c1.4-0.9,2.9-1.8,4.5-2.2c1.6-0.4,3.4-0.4,4.9,0.6c0.6,0.4,1.1,0.9,1.8,1.3s1.4,0.5,2.1,0.8
								C168.1,293.3,169,293.9,169.6,294.7z"/>
							<path class="st43" d="M136.3,368.6c0,0-1.3-45.5-2.3-47.1s-9.5-4.7-20.1-4c-10.6,0.8-13.7,4-13.7,4l-2.7,47.1H136.3z"/>
							<path class="st41" d="M128.3,344.6c0,0-5.3,2.5-5.9,4.4s-2.1,19.6-2.1,19.6h41.5c0,0-2.3-20.4-4-22.2
								C156.1,344.7,137.1,342.4,128.3,344.6z"/>
							<path class="st46" d="M147.3,315c0.3,0,0.7,0,1,0c0.4,0.1,0.8,0.2,1.1,0.5s0.5,0.6,0.7,1c0.1,0.3,0.2,0.5,0.3,0.8
								c0.2,0.3,0.4,0.5,0.6,0.7c0.2,0.3,0.4,0.6,0.4,1s0,0.7-0.2,1c0.4,0.2,0.7,0.6,1,0.9c0.2,0.4,0.4,0.8,0.4,1.3
								c0,0.3,0,0.7,0,1.1c0.1,1.1,1,2,1.4,3s0.4,2.1,0.1,3c-0.4,1-1.1,1.8-2,2.3c0.6,0.6,1,1.5,1,2.4s-0.3,1.7-0.9,2.4
								c0.9,0.8,1.9,1.6,2.3,2.8c0.4,1.2,0.2,2.7-0.9,3.3c0.4,0.4,0.6,0.9,0.7,1.4c0.1,0.5,0,1.1-0.2,1.6s-0.6,0.9-1,1.2
								c-0.4,0.3-1,0.4-1.5,0.4c0.2,0.6,0.2,1.2,0.1,1.8c-0.1,0.6-0.4,1.1-0.8,1.6c-0.4,0.4-0.9,0.8-1.4,1s-1.1,0.2-1.7,0.1
								c0.1,1.5,0,3.1-0.3,4.6c-2.1,0.5-4.4,0.3-6.4-0.5c-0.8,0.6-1.7,1.3-2.7,1.5s-2.2-0.1-2.8-1c-0.3-0.5-0.5-1.2-1-1.4
								c-0.2-0.1-0.5-0.1-0.7-0.1h-3.7c-0.3,0-0.5,0-0.8-0.2c-0.2-0.2-0.3-0.4-0.3-0.6c-0.3-1-0.3-2.1-0.1-3.2
								c-0.3-0.1-0.6-0.3-0.8-0.5s-0.4-0.5-0.5-0.8s-0.2-0.6-0.2-1c0-0.3,0.1-0.7,0.2-1c0.2-0.3,0.3-0.6,0.5-1
								c0.1-0.6-0.1-1.2-0.2-1.7c-0.1-0.8,0-1.6,0.5-2.3c0.2-0.2,0.3-0.5,0.4-0.8c0.1-0.4-0.2-0.8-0.4-1.1c-0.3-0.6-0.5-1.3-0.6-2
								s0-1.4,0.2-2.1c0.2-0.5,0.4-1,0.3-1.5c-0.1-0.3-0.1-0.6-0.3-0.9c-0.3-0.7-0.4-1.4-0.3-2.1c0-0.7,0.2-1.4,0.6-2.1
								c0.2-0.3,0.4-0.7,0.5-1.1c0-0.3,0-0.7-0.1-1c-0.4-1.8-0.4-3.6-0.1-5.4c0.2-1,0.5-2.1,1.4-2.5c0.2-0.1,0.4-0.2,0.5-0.3
								c0.1-0.2,0.1-0.4,0.1-0.6c0-0.4,0.1-0.8,0.3-1.1c0.2-0.4,0.4-0.7,0.7-0.9c0.3-0.3,0.6-0.4,1-0.6c0.4-0.1,0.8-0.2,1.1-0.1
								c0.5-2.1,3.2-3.3,5-2.2c0.1-0.5,0.4-1,0.8-1.4c0.4-0.4,0.9-0.6,1.5-0.7c1.4-0.1,2,1,3,1.6C144.9,313.8,146.2,314.9,147.3,315
								z"/>
							<path class="st42" d="M122.7,315.9c-0.1-0.1-0.3-0.2-0.5-0.2c-1.1-0.2-2.2,0.2-3.2,0.4c-2.5,0.5-5.1,0.3-7.6,0.2
								c-0.1,0-0.1,0-0.2,0s-0.1,0.1-0.2,0.2c-0.1,0.2-0.1,0.4-0.1,0.7c0,0.2,0.1,0.4,0.3,0.6c0.3,0.3,0.7,0.6,1.1,0.7
								c0.6,0.3,1.3,0.5,1.9,0.6c0.8,0.1,1.7,0.2,2.5,0.2c1.6,0,3.2,0,4.6-0.6c0.4-0.1,0.8-0.4,1-0.8
								C122.7,317.4,123.1,316.4,122.7,315.9z"/>
							<path class="st47" d="M126.5,294.7c0.3,0.4,0.6,0.9,0.8,1.3c0.8,1.6,0.9,3.5,1,5.3c0.1,1.6-0.2,3.1-0.7,4.6
								c-0.6,1.5-1.6,2.6-2.4,4c-0.7,1.2-1.2,2.5-2,3.6c-0.7,1-1.6,1.9-2.6,2.6s-2.2,1.1-3.4,1.2c-1.2,0.1-2.4,0-3.5-0.5
								s-2.1-1.2-2.9-2.1c-0.8-1-1.3-2.1-1.9-3.2c-0.6-0.9-1.2-1.9-1.7-2.9c-0.7-1.5-0.9-3.3-1-5c-0.2-1.7-0.1-3.3,0.1-5
								s1-3.2,2.1-4.4c0.7-0.7,1.5-1.3,2.4-1.7c1.4-0.9,2.9-1.8,4.5-2.2c1.6-0.4,3.4-0.4,4.9,0.6c0.6,0.4,1.1,0.9,1.8,1.3
								c0.6,0.4,1.4,0.5,2.1,0.8C125,293.3,125.8,293.9,126.5,294.7z"/>
							<path class="st40" d="M105.6,342.3c0,0,7,0.2,8.3,3.1s1.3,23.2,1.3,23.2h-30c0,0-0.7-21.3,0.7-23.3
								C87.4,343.4,105.6,342.3,105.6,342.3z"/>
							<path class="st41" d="M96.8,313c1.4-0.4,3-0.3,4.3,0.4c0.7,0.4,1,1.1,1.6,1.6c0.5,0.3,1.3-0.1,1.7,0.6
								c0.5,0.7,0.8,1.9,1.2,2.7c0.5,1,0.9,2.1,1.3,3.2c0.8,2.2,1.4,4.4,1.8,6.7c0.9,4.5,1.2,9.1,1,13.7c-0.1,2.8-0.3,5.6-1.4,8.1
								c-1.1,2.8-6.2,2-8.5,2c-3.9-0.1-7.9-0.3-11.8-0.6c-0.9-9-0.7-18,0.5-26.9c0.3-2,0.6-4,1.5-5.8
								C91.5,316.3,94.1,313.8,96.8,313z"/>
							<path class="st40" d="M211.6,396.4c0,0,7,0.2,8.3,3.2c1.3,2.9,1.3,23.2,1.3,23.2h-30c0,0-0.7-21.3,0.7-23.3
								C193.4,397.5,211.6,396.4,211.6,396.4z"/>
							<path class="st41" d="M202.8,367.2c1.4-0.4,3-0.3,4.3,0.4c0.7,0.4,1,1.2,1.6,1.6c0.5,0.3,1.3-0.1,1.7,0.6
								c0.5,0.7,0.8,1.9,1.2,2.7c0.5,1,0.9,2.1,1.3,3.2c0.8,2.2,1.4,4.4,1.8,6.7c0.9,4.5,1.2,9.1,1,13.7c-0.1,2.8-0.4,5.6-1.4,8.1
								c-1.1,2.8-6.2,2-8.5,2c-3.9-0.1-7.9-0.3-11.8-0.6c-0.9-9-0.7-18,0.5-26.9c0.3-2,0.6-4,1.5-5.8
								C197.5,370.5,200,368,202.8,367.2z"/>
							<path class="st40" d="M183.5,375.4c0,0,7,0.2,8.3,3.2c1.3,2.9,1.3,22.4,1.3,22.4h-30c0,0-0.7-20.5,0.7-22.5
								S183.5,375.4,183.5,375.4z"/>
							<path class="st41" d="M178.1,347c1.8,0.8,2.9,2.6,3.8,4.3c3.9,7.6,5.1,16.4,4.9,25c-0.1,2.8-0.3,5.6-1.4,8.1
								c-0.1,0.5-0.4,0.9-0.8,1.2c-0.4,0.2-0.9,0.3-1.4,0.3c-5.3,0.1-10.6-0.1-15.9-0.5c-1.8-6.7-3.6-13.6-3.6-20.6
								c0-3.7,0.5-7.4,2.1-10.7c1.6-3.3,4.5-6,7.9-6.8c2.3-0.5,5.1,0.1,6,2.3"/>
							<path class="st43" d="M179.5,446c0,0-1.3-45.5-2.3-47.1s-9.5-4.7-20.1-4c-10.6,0.8-13.7,4-13.7,4l-2.7,47.1H179.5z"/>
							<path class="st41" d="M171.5,421.9c0,0-5.3,2.5-5.9,4.4c-0.6,1.9-2.1,19.6-2.1,19.6H205c0,0-2.3-20.4-4-22.2
								C199.3,422.1,180.3,419.8,171.5,421.9z"/>
							<path class="st44" d="M190.4,392.4c0.3,0,0.7,0,1,0.1c0.4,0.1,0.8,0.2,1.1,0.5s0.6,0.6,0.7,1c0.1,0.3,0.2,0.6,0.3,0.8
								c0.2,0.2,0.4,0.5,0.6,0.7c0.2,0.3,0.4,0.6,0.4,1s0,0.7-0.2,1c0.4,0.2,0.7,0.6,1,0.9c0.2,0.4,0.4,0.8,0.4,1.3
								c0,0.3,0,0.7,0,1.1c0.1,1.1,1,2,1.4,3s0.4,2.1,0.1,3c-0.4,1-1.1,1.8-2,2.3c0.6,0.6,1,1.5,1,2.4s-0.3,1.8-0.9,2.4
								c0.9,0.8,1.9,1.6,2.3,2.8c0.4,1.2,0.2,2.7-0.9,3.3c0.4,0.4,0.6,0.9,0.7,1.4c0.1,0.5,0,1.1-0.2,1.6s-0.6,0.9-1,1.2
								c-0.4,0.3-1,0.4-1.5,0.4c0.2,0.6,0.2,1.2,0.1,1.7c-0.1,0.6-0.4,1.1-0.8,1.6c-0.4,0.4-0.9,0.8-1.4,1s-1.1,0.2-1.7,0.1
								c0.1,1.5,0,3.1-0.3,4.6c-2.1,0.5-4.4,0.3-6.4-0.5c-0.9,0.6-1.7,1.3-2.7,1.5s-2.2-0.1-2.8-1c-0.3-0.5-0.5-1.2-1-1.4
								c-0.2-0.1-0.5-0.1-0.7-0.1h-3.7c-0.3,0-0.5,0-0.8-0.2c-0.2-0.2-0.3-0.4-0.3-0.6c-0.3-1-0.3-2.1-0.1-3.2
								c-0.3-0.1-0.6-0.3-0.8-0.5s-0.4-0.5-0.5-0.8s-0.2-0.6-0.2-1c0-0.3,0.1-0.7,0.2-1c0.2-0.3,0.3-0.6,0.5-1
								c0.1-0.6-0.1-1.2-0.2-1.7c-0.1-0.8,0-1.6,0.5-2.3c0.2-0.2,0.3-0.5,0.4-0.8c0.1-0.4-0.2-0.8-0.4-1.1c-0.3-0.6-0.5-1.3-0.6-2
								s0-1.4,0.2-2.1c0.2-0.5,0.4-1,0.3-1.5c-0.1-0.3-0.1-0.6-0.3-0.9c-0.3-0.7-0.4-1.4-0.3-2.1c0-0.7,0.2-1.4,0.6-2.1
								c0.2-0.3,0.4-0.7,0.5-1.1c0-0.3,0-0.7-0.1-1c-0.4-1.8-0.4-3.6-0.1-5.4c0.2-1,0.5-2.1,1.4-2.5c0.2-0.1,0.4-0.2,0.5-0.3
								c0.1-0.2,0.1-0.4,0.1-0.6c0-0.4,0.1-0.8,0.3-1.1c0.2-0.4,0.4-0.7,0.7-0.9c0.3-0.3,0.6-0.4,1-0.6c0.4-0.1,0.8-0.2,1.1-0.1
								c0.5-2.1,3.2-3.3,5-2.2c0.1-0.5,0.4-1,0.8-1.4c0.4-0.4,0.9-0.6,1.5-0.7c1.3-0.1,2,1,3,1.6C188,391.2,189.4,392.3,190.4,392.4
								z"/>
							<path class="st42" d="M165.9,393.3c-0.1-0.1-0.3-0.2-0.5-0.2c-1.1-0.2-2.2,0.2-3.2,0.4c-2.5,0.5-5.1,0.3-7.6,0.2
								c-0.1,0-0.1,0-0.2,0c-0.1,0-0.1,0.1-0.2,0.2c-0.1,0.2-0.1,0.4-0.1,0.7c0,0.2,0.1,0.4,0.3,0.6c0.3,0.3,0.7,0.6,1.1,0.7
								c0.6,0.3,1.3,0.5,1.9,0.6c0.8,0.1,1.7,0.2,2.5,0.2c1.6,0,3.2,0,4.6-0.6c0.4-0.1,0.8-0.4,1-0.8
								C165.8,394.8,166.3,393.8,165.9,393.3z"/>
							<path class="st44" d="M169.6,372.1c0.3,0.4,0.6,0.9,0.8,1.3c0.8,1.6,0.9,3.5,1,5.3c0.1,1.6-0.2,3.1-0.7,4.6
								c-0.6,1.5-1.6,2.6-2.4,4c-0.7,1.2-1.2,2.5-2,3.6c-0.7,1-1.6,1.9-2.6,2.6s-2.2,1.1-3.4,1.2s-2.4,0-3.5-0.5s-2.1-1.2-2.9-2.1
								c-0.8-1-1.3-2.1-1.9-3.2c-0.6-0.9-1.2-1.9-1.7-2.9c-0.7-1.5-0.9-3.3-1-5c-0.2-1.7-0.1-3.3,0.1-5c0.2-1.7,1-3.2,2.1-4.4
								c0.7-0.7,1.5-1.3,2.4-1.7c1.4-0.9,2.9-1.8,4.5-2.2c1.6-0.4,3.4-0.4,4.9,0.6c0.6,0.4,1.1,0.9,1.8,1.3c0.6,0.4,1.4,0.5,2.1,0.8
								C168.1,370.7,169,371.3,169.6,372.1z"/>
							<path class="st40" d="M140.3,375.4c0,0,7,0.2,8.3,3.2c1.3,2.9,1.3,22.4,1.3,22.4h-30c0,0-0.7-20.5,0.7-22.5
								C122.1,376.5,140.3,375.4,140.3,375.4z"/>
							<path class="st41" d="M135,347c1.8,0.8,2.9,2.6,3.8,4.3c3.9,7.6,5.1,16.4,4.9,25c-0.1,2.8-0.3,5.6-1.4,8.1
								c-0.1,0.5-0.4,0.9-0.8,1.2c-0.4,0.2-0.9,0.3-1.4,0.3c-5.3,0.1-10.6-0.1-15.9-0.5c-1.8-6.7-3.6-13.6-3.6-20.6
								c0-3.7,0.5-7.4,2.1-10.7c1.6-3.3,4.5-6,7.9-6.8c2.3-0.5,5.1,0.1,6,2.3"/>
							<path class="st43" d="M128.2,441.1c0,0-1.3-45.5-2.3-47.1c-1-1.5-9.5-4.7-20.1-4c-10.6,0.8-13.7,4-13.7,4l-2.7,47.1H128.2z"
								/>
							<path class="st41" d="M120.2,417.1c0,0-5.3,2.5-5.9,4.4s-2.1,19.6-2.1,19.6h41.5c0,0-2.3-20.4-4-22.2
								C148,417.2,129,414.9,120.2,417.1z"/>
							<path class="st44" d="M139.2,387.6c0.3,0.1,0.7,0,1,0.1c0.4,0.1,0.8,0.2,1.1,0.5s0.6,0.6,0.7,1c0.1,0.3,0.2,0.6,0.3,0.8
								c0.2,0.2,0.4,0.5,0.6,0.7c0.2,0.3,0.4,0.6,0.4,1s0,0.7-0.2,1c0.4,0.2,0.7,0.6,1,0.9c0.2,0.4,0.4,0.8,0.4,1.3
								c0,0.3,0,0.7,0,1.1c0.1,1.1,1,2,1.4,3s0.4,2.1,0.1,3c-0.4,1-1.1,1.8-2,2.3c0.6,0.6,1,1.5,1,2.4s-0.3,1.8-0.9,2.4
								c0.9,0.8,1.9,1.6,2.3,2.8c0.4,1.2,0.2,2.7-0.9,3.3c0.4,0.4,0.6,0.9,0.7,1.4c0.1,0.5,0,1.1-0.2,1.6s-0.6,0.9-1,1.2
								c-0.4,0.3-1,0.4-1.5,0.4c0.2,0.6,0.2,1.2,0.1,1.8c-0.1,0.6-0.4,1.1-0.8,1.6c-0.4,0.4-0.9,0.8-1.4,1s-1.1,0.2-1.7,0.1
								c0.1,1.5,0,3.1-0.3,4.6c-2.1,0.5-4.4,0.3-6.4-0.5c-0.8,0.6-1.7,1.3-2.7,1.5s-2.2-0.1-2.8-1c-0.3-0.5-0.5-1.2-1-1.4
								c-0.2-0.1-0.5-0.1-0.7-0.1H122c-0.3,0-0.5,0-0.8-0.2c-0.2-0.2-0.3-0.4-0.3-0.6c-0.3-1-0.3-2.1-0.1-3.2
								c-0.3-0.1-0.6-0.3-0.8-0.5c-0.2-0.2-0.4-0.5-0.5-0.8s-0.2-0.6-0.2-1c0-0.3,0.1-0.7,0.2-1c0.2-0.3,0.3-0.6,0.5-1
								c0.1-0.6-0.1-1.2-0.2-1.7c-0.1-0.8,0-1.6,0.5-2.3c0.2-0.2,0.3-0.5,0.4-0.8c0.1-0.4-0.2-0.8-0.4-1.1c-0.3-0.6-0.5-1.3-0.6-2
								s0-1.4,0.2-2.1c0.2-0.5,0.4-1,0.3-1.5c-0.1-0.3-0.1-0.6-0.3-0.9c-0.3-0.7-0.4-1.4-0.3-2.1c0-0.7,0.2-1.4,0.6-2.1
								c0.2-0.3,0.4-0.7,0.5-1.1c0-0.3,0-0.7-0.1-1c-0.4-1.8-0.4-3.6-0.1-5.4c0.2-1,0.5-2.1,1.4-2.5c0.2-0.1,0.4-0.2,0.5-0.3
								c0.1-0.2,0.1-0.4,0.1-0.6c0-0.4,0.1-0.8,0.3-1.1c0.2-0.4,0.4-0.7,0.7-0.9c0.3-0.3,0.6-0.4,1-0.6c0.4-0.1,0.8-0.2,1.1-0.1
								c0.5-2.1,3.2-3.3,5-2.2c0.1-0.5,0.4-1,0.8-1.4c0.4-0.4,0.9-0.6,1.5-0.7c1.3-0.1,2,1,3,1.6
								C136.8,386.4,138.1,387.4,139.2,387.6z"/>
							<path class="st42" d="M114.6,388.5c-0.1-0.1-0.3-0.2-0.5-0.2c-1.1-0.2-2.2,0.2-3.2,0.4c-2.5,0.5-5.1,0.3-7.6,0.2
								c-0.1,0-0.1,0-0.2,0s-0.1,0.1-0.2,0.2c-0.1,0.2-0.1,0.4-0.1,0.7c0,0.2,0.1,0.4,0.3,0.6c0.3,0.3,0.7,0.6,1.1,0.7
								c0.6,0.3,1.3,0.5,1.9,0.6c0.8,0.1,1.7,0.2,2.5,0.2c1.6,0,3.2,0,4.6-0.6c0.4-0.1,0.8-0.4,1-0.8
								C114.6,390,115,388.9,114.6,388.5z"/>
							<path class="st44" d="M118.4,367.2c0.3,0.4,0.6,0.9,0.8,1.3c0.8,1.6,0.9,3.5,1,5.3c0.1,1.6-0.2,3.1-0.7,4.6
								c-0.6,1.5-1.6,2.6-2.4,4c-0.7,1.2-1.2,2.4-2,3.6c-0.7,1-1.6,1.9-2.6,2.6s-2.2,1.1-3.4,1.2c-1.2,0.1-2.4,0-3.5-0.5
								s-2.1-1.2-2.9-2.1c-0.8-1-1.3-2.1-1.9-3.2c-0.6-0.9-1.2-1.9-1.7-2.8c-0.7-1.5-0.9-3.3-1-5c-0.2-1.7-0.1-3.3,0.1-5
								s1-3.2,2.1-4.4c0.7-0.7,1.5-1.3,2.4-1.7c1.5-0.9,2.9-1.8,4.5-2.2c1.6-0.4,3.4-0.4,4.9,0.6c0.6,0.4,1.1,0.9,1.8,1.3
								c0.6,0.4,1.4,0.5,2.1,0.8C116.9,365.9,117.7,366.4,118.4,367.2z"/>
							<path class="st43" d="M61.6,353.5c0,0-1.3-45.5-2.3-47.1c-1-1.5-9.5-4.7-20.1-4c-10.6,0.8-13.7,4-13.7,4l-2.7,47.1H61.6z"/>
							<path class="st41" d="M54.2,320.9c0,0-5.3,2.5-5.9,4.4c-0.6,1.9-2.1,19.7-2.1,19.7h41.5c0,0-2.3-20.4-4-22.2
								C82,321.1,63,318.7,54.2,320.9z"/>
							<path class="st44" d="M73.1,291.4c0.3,0,0.7,0,1,0.1c0.4,0.1,0.8,0.2,1.1,0.5c0.3,0.3,0.5,0.6,0.7,1c0.1,0.3,0.2,0.6,0.3,0.8
								c0.2,0.2,0.4,0.5,0.6,0.7c0.2,0.3,0.4,0.6,0.4,1s0,0.7-0.2,1c0.4,0.2,0.7,0.6,1,0.9c0.2,0.4,0.4,0.8,0.4,1.3
								c0,0.3,0,0.7,0,1.1c0.1,1.1,1,2,1.4,3s0.4,2.1,0.1,3c-0.4,1-1.1,1.8-2,2.3c0.6,0.6,1,1.5,1,2.4s-0.3,1.8-0.9,2.4
								c0.9,0.8,1.9,1.6,2.3,2.8c0.4,1.2,0.2,2.7-0.9,3.3c0.4,0.4,0.6,0.9,0.7,1.4s0,1.1-0.2,1.6s-0.6,0.9-1,1.2
								c-0.4,0.3-1,0.4-1.5,0.4c0.2,0.6,0.2,1.2,0.1,1.8c-0.1,0.6-0.4,1.1-0.8,1.6c-0.4,0.4-0.9,0.8-1.4,1s-1.1,0.2-1.7,0.1
								c0.1,1.5,0,3.1-0.3,4.6c-2.1,0.5-4.4,0.3-6.4-0.5c-0.8,0.6-1.7,1.3-2.7,1.5s-2.2-0.1-2.8-1c-0.3-0.5-0.5-1.2-1-1.4
								c-0.2-0.1-0.5-0.1-0.7-0.1H56c-0.3,0-0.5,0-0.8-0.2c-0.2-0.2-0.3-0.4-0.3-0.6c-0.3-1-0.3-2.1-0.1-3.2
								c-0.3-0.1-0.6-0.3-0.8-0.5s-0.4-0.5-0.5-0.8s-0.2-0.6-0.2-1c0-0.3,0.1-0.7,0.2-1c0.2-0.3,0.3-0.6,0.5-1
								c0.1-0.6-0.1-1.2-0.2-1.7c-0.1-0.8,0-1.6,0.5-2.3c0.2-0.2,0.3-0.5,0.4-0.8c0.1-0.4-0.2-0.8-0.4-1.1c-0.3-0.6-0.5-1.3-0.6-2
								s0-1.4,0.2-2.1c0.2-0.5,0.4-1,0.3-1.5c-0.1-0.3-0.1-0.6-0.3-0.9c-0.3-0.7-0.4-1.4-0.3-2.1c0-0.7,0.2-1.4,0.6-2.1
								c0.2-0.3,0.3-0.7,0.4-1.1c0-0.3,0-0.7-0.1-1c-0.4-1.8-0.4-3.6-0.1-5.4c0.2-1,0.5-2.1,1.4-2.5c0.2-0.1,0.4-0.2,0.5-0.3
								c0.1-0.2,0.1-0.4,0.1-0.6c0-0.4,0.1-0.8,0.3-1.1c0.2-0.4,0.4-0.7,0.7-0.9c0.3-0.3,0.6-0.4,1-0.6c0.4-0.1,0.8-0.2,1.1-0.1
								c0.5-2.1,3.2-3.3,5-2.2c0.1-0.5,0.4-1,0.8-1.4s0.9-0.6,1.5-0.7c1.3-0.1,2,1,3,1.6C70.7,290.2,72,291.2,73.1,291.4z"/>
							<path class="st42" d="M47.9,300.8c-0.1-0.1-0.3-0.2-0.5-0.2c-1.1-0.2-2.2,0.2-3.2,0.4c-2.5,0.5-5.1,0.3-7.6,0.2
								c-0.1,0-0.1,0-0.2,0c-0.1,0-0.1,0.1-0.2,0.2c-0.1,0.2-0.1,0.4-0.1,0.7c0,0.2,0.1,0.4,0.3,0.6c0.3,0.3,0.7,0.6,1.1,0.7
								c0.6,0.3,1.3,0.5,1.9,0.6c0.8,0.1,1.7,0.2,2.5,0.2c1.6,0,3.2,0,4.6-0.6c0.4-0.1,0.8-0.4,1-0.8
								C47.9,302.3,48.4,301.3,47.9,300.8z"/>
							<path class="st44" d="M51.7,279.6c0.3,0.4,0.6,0.9,0.8,1.3c0.8,1.6,0.9,3.5,1,5.3c0.1,1.6-0.2,3.1-0.7,4.6
								c-0.6,1.5-1.6,2.6-2.4,4c-0.7,1.2-1.2,2.5-2,3.6c-0.7,1-1.6,1.9-2.6,2.6s-2.2,1.1-3.4,1.2s-2.4,0-3.5-0.5s-2.1-1.2-2.9-2.1
								c-0.8-1-1.3-2.1-1.9-3.2c-0.6-0.9-1.2-1.9-1.7-2.9c-0.7-1.5-0.9-3.3-1-5c-0.2-1.7-0.1-3.3,0.1-5s1-3.2,2.1-4.4
								c0.7-0.7,1.5-1.3,2.4-1.7c1.4-0.9,2.9-1.8,4.5-2.2c1.6-0.4,3.4-0.4,4.9,0.6c0.6,0.4,1.1,0.9,1.8,1.3c0.6,0.4,1.4,0.5,2.1,0.8
								C50.2,278.2,51.1,278.8,51.7,279.6z"/>
							<path class="st40" d="M105.6,419.7c0,0,7,0.2,8.3,3.2c1.3,2.9,1.3,23.2,1.3,23.2h-30c0,0-0.7-21.3,0.7-23.3
								C87.4,420.7,105.6,419.7,105.6,419.7z"/>
							<path class="st41" d="M96.8,390.4c1.4-0.4,3-0.3,4.3,0.4c0.7,0.4,1,1.2,1.6,1.6c0.5,0.3,1.3-0.1,1.7,0.6
								c0.5,0.7,0.8,1.9,1.2,2.7c0.5,1,0.9,2.1,1.3,3.2c0.8,2.2,1.4,4.4,1.8,6.7c0.9,4.5,1.2,9.1,1,13.7c-0.1,2.8-0.3,5.6-1.4,8.1
								c-1.1,2.8-6.2,2-8.5,2c-3.9-0.1-7.9-0.3-11.8-0.6c-0.9-9-0.7-18,0.5-26.9c0.3-2,0.6-4,1.5-5.8
								C91.5,393.7,94.1,391.2,96.8,390.4z"/>
							<path class="st40" d="M426.4,351.2c0,0,7,0.2,8.3,3.2c1.3,2.9,1.3,23.2,1.3,23.2h-30c0,0-0.7-21.3,0.7-23.3
								C408.1,352.3,426.4,351.2,426.4,351.2z"/>
							<path class="st41" d="M417.6,322c1.4-0.4,3-0.3,4.3,0.4c0.7,0.4,1,1.1,1.6,1.6c0.5,0.3,1.3-0.1,1.7,0.6
								c0.5,0.7,0.8,1.9,1.2,2.7c0.5,1,0.9,2.1,1.3,3.2c0.8,2.2,1.4,4.4,1.8,6.7c0.9,4.5,1.2,9.1,1,13.7c-0.1,2.8-0.3,5.6-1.4,8.1
								c-1.1,2.8-6.2,2-8.5,2c-3.9-0.1-7.9-0.3-11.8-0.6c-0.9-9-0.7-18,0.5-26.9c0.3-2,0.6-4,1.5-5.8
								C412.2,325.3,414.8,322.8,417.6,322z"/>
							<path class="st40" d="M398.2,330.2c0,0,7,0.2,8.3,3.2c1.3,2.9,1.3,22.4,1.3,22.4h-30c0,0-0.7-20.5,0.7-22.5
								C380,331.3,398.2,330.2,398.2,330.2z"/>
							<path class="st46" d="M382.2,340.2c-1-0.1-2.9-12.7-3.1-14.1c-0.2-1.8,0-3.5-0.5-5.2c-0.6-2.2-1.3-4.3-1.4-6.6
								c0-0.9,0-1.8-0.1-2.8c-0.2-0.9-0.5-1.7-0.7-2.6c-0.8-3.8,2.3-7.6,5.9-8.7s7.5-0.1,11,1.3c1,0.4,1.9,0.9,2.7,1.6
								c1.3,1.2,2,3.1,2.2,4.9s0.2,3.7,0.4,5.5c0.7,6.1,4.3,11.8,3.5,17.9c-0.3,2.6-0.7,5.5-1.7,7.9c-0.1,0.5-0.4,0.9-0.8,1.2
								c-0.4,0.2-0.9,0.3-1.4,0.3C392.7,340.8,387.4,340.7,382.2,340.2z"/>
							<path class="st43" d="M394.3,400.8c0,0-1.3-45.5-2.3-47.1s-9.5-4.7-20.1-4s-13.7,4-13.7,4l-2.7,47.1H394.3z"/>
							<path class="st41" d="M386.2,376.7c0,0-5.3,2.5-5.9,4.4s-2.1,19.6-2.1,19.6h41.5c0,0-2.3-20.4-4-22.2
								C414,376.9,395,374.6,386.2,376.7z"/>
							<path class="st44" d="M405.2,347.2c0.3,0,0.7,0,1,0c0.4,0.1,0.8,0.2,1.1,0.5c0.3,0.3,0.6,0.6,0.7,1c0.1,0.3,0.2,0.6,0.3,0.8
								c0.2,0.3,0.4,0.5,0.6,0.7c0.2,0.3,0.4,0.6,0.4,1s0,0.7-0.2,1c0.4,0.2,0.7,0.6,1,0.9c0.2,0.4,0.4,0.8,0.4,1.3
								c0,0.3,0,0.7,0,1.1c0.1,1.1,1,2,1.4,3s0.4,2.1,0.1,3c-0.4,1-1.1,1.8-2,2.3c0.6,0.6,1,1.5,1,2.4s-0.3,1.7-0.9,2.4
								c0.9,0.8,1.9,1.6,2.3,2.8c0.4,1.2,0.2,2.7-0.9,3.3c0.4,0.4,0.6,0.9,0.7,1.4s0,1.1-0.2,1.6s-0.6,0.9-1,1.2
								c-0.4,0.3-1,0.4-1.5,0.4c0.2,0.6,0.2,1.2,0.1,1.8c-0.1,0.6-0.4,1.1-0.8,1.6c-0.4,0.4-0.9,0.8-1.4,1s-1.1,0.2-1.7,0.1
								c0.1,1.5,0,3.1-0.3,4.6c-2.1,0.5-4.4,0.3-6.4-0.5c-0.8,0.6-1.7,1.3-2.7,1.5s-2.2-0.1-2.8-1c-0.3-0.5-0.5-1.2-1-1.4
								c-0.2-0.1-0.5-0.1-0.7-0.1H388c-0.3,0-0.5,0-0.8-0.2c-0.2-0.2-0.3-0.4-0.3-0.6c-0.3-1-0.3-2.1-0.1-3.2
								c-0.3-0.1-0.6-0.3-0.8-0.5c-0.2-0.2-0.4-0.5-0.5-0.8s-0.2-0.6-0.2-1c0-0.3,0.1-0.7,0.2-1c0.2-0.3,0.3-0.6,0.5-1
								c0.1-0.6-0.1-1.2-0.2-1.7c-0.1-0.8,0-1.6,0.5-2.3c0.2-0.2,0.3-0.5,0.4-0.8c0.1-0.4-0.2-0.8-0.4-1.1c-0.3-0.6-0.5-1.3-0.6-2
								s0-1.4,0.2-2.1c0.2-0.5,0.4-1,0.3-1.5c-0.1-0.3-0.1-0.6-0.3-0.9c-0.3-0.7-0.4-1.4-0.3-2.1c0-0.7,0.2-1.4,0.6-2.1
								c0.2-0.3,0.4-0.7,0.5-1.1c0-0.3,0-0.7-0.1-1c-0.4-1.8-0.4-3.6-0.1-5.4c0.2-1,0.5-2.1,1.4-2.5c0.2-0.1,0.4-0.2,0.5-0.3
								c0.1-0.2,0.1-0.4,0.1-0.6c0-0.4,0.1-0.8,0.3-1.1c0.2-0.4,0.4-0.7,0.7-0.9c0.3-0.3,0.6-0.4,1-0.6c0.4-0.1,0.8-0.2,1.1-0.1
								c0.5-2.1,3.2-3.3,5-2.2c0.1-0.5,0.4-1,0.8-1.4s0.9-0.6,1.5-0.7c1.3-0.1,2,1,3,1.6C402.8,346,404.1,347,405.2,347.2z"/>
							<path class="st42" d="M380.6,348.1c-0.1-0.1-0.3-0.2-0.5-0.2c-1.1-0.2-2.2,0.2-3.2,0.4c-2.5,0.5-5.1,0.3-7.6,0.2
								c-0.1,0-0.1,0-0.2,0s-0.1,0.1-0.2,0.2c-0.1,0.2-0.1,0.4-0.1,0.7c0,0.2,0.1,0.4,0.3,0.6c0.3,0.3,0.7,0.6,1.1,0.7
								c0.6,0.3,1.3,0.5,1.9,0.6c0.8,0.1,1.7,0.2,2.5,0.2c1.6,0,3.2,0,4.6-0.6c0.4-0.1,0.8-0.4,1-0.8
								C380.6,349.6,381.1,348.6,380.6,348.1z"/>
							<path class="st44" d="M384.4,326.9c0.3,0.4,0.6,0.9,0.8,1.3c0.8,1.6,0.9,3.5,1,5.3c0.1,1.6-0.2,3.1-0.7,4.6
								c-0.6,1.5-1.6,2.6-2.4,4c-0.7,1.2-1.2,2.5-2,3.6c-0.7,1-1.6,1.9-2.6,2.6s-2.2,1.1-3.4,1.2c-1.2,0.1-2.4,0-3.5-0.5
								s-2.1-1.2-2.9-2.1c-0.8-1-1.3-2.1-1.9-3.2c-0.6-0.9-1.2-1.9-1.7-2.9c-0.7-1.5-0.9-3.3-1-5c-0.2-1.7-0.1-3.3,0.1-5
								s1-3.2,2.1-4.4c0.7-0.7,1.5-1.3,2.4-1.7c1.4-0.9,2.9-1.8,4.5-2.2c1.6-0.4,3.4-0.4,4.9,0.6c0.6,0.4,1.1,0.9,1.8,1.3
								c0.6,0.4,1.4,0.5,2.1,0.8C382.9,325.5,383.7,326.1,384.4,326.9z"/>
							<path class="st40" d="M355,330.2c0,0,7,0.2,8.3,3.2c1.3,2.9,1.3,22.4,1.3,22.4h-30c0,0-0.7-20.5,0.7-22.5
								C336.8,331.3,355,330.2,355,330.2z"/>
							<path class="st41" d="M349.7,301.8c1.8,0.8,2.9,2.6,3.8,4.3c3.9,7.6,5.1,16.4,4.9,25c-0.1,2.8-0.3,5.6-1.4,8.1
								c-0.1,0.5-0.4,0.9-0.8,1.2c-0.4,0.2-0.9,0.3-1.4,0.3c-5.3,0.1-10.6-0.1-15.9-0.5c-1.8-6.7-3.6-13.6-3.6-20.6
								c0-3.7,0.5-7.4,2.1-10.7c1.6-3.3,4.5-6,7.9-6.8c2.3-0.5,5.1,0.1,6,2.3"/>
							<path class="st43" d="M343,395.9c0,0-1.3-45.5-2.3-47.1c-1-1.5-9.5-4.7-20.1-4c-10.6,0.8-13.7,4-13.7,4l-2.7,47.1H343z"/>
							<path class="st41" d="M335,371.9c0,0-5.3,2.5-5.9,4.4s-2.1,19.6-2.1,19.6h41.5c0,0-2.3-20.4-4-22.2
								C362.8,372,343.8,369.7,335,371.9z"/>
							<path class="st44" d="M353.9,342.4c0.3,0,0.7,0,1,0.1c0.4,0.1,0.8,0.2,1.1,0.5c0.3,0.3,0.5,0.6,0.7,1
								c0.1,0.3,0.2,0.6,0.3,0.8c0.2,0.3,0.4,0.5,0.6,0.7c0.2,0.3,0.4,0.6,0.4,1s0,0.7-0.2,1c0.4,0.2,0.7,0.6,1,0.9
								c0.2,0.4,0.4,0.8,0.4,1.3c0,0.3,0,0.7,0,1.1c0.1,1.1,1,2,1.4,3s0.4,2.1,0.1,3c-0.4,1-1.1,1.8-2,2.3c0.6,0.6,1,1.5,1,2.4
								s-0.3,1.8-0.9,2.4c0.9,0.8,1.9,1.6,2.3,2.8c0.4,1.2,0.2,2.7-0.9,3.3c0.4,0.4,0.6,0.9,0.7,1.4s0,1.1-0.2,1.6s-0.6,0.9-1,1.2
								c-0.4,0.3-1,0.4-1.5,0.4c0.2,0.6,0.2,1.2,0.1,1.7c-0.1,0.6-0.4,1.1-0.8,1.6c-0.4,0.4-0.9,0.8-1.4,1s-1.1,0.2-1.7,0.1
								c0.1,1.5,0,3.1-0.3,4.6c-2.1,0.5-4.4,0.3-6.4-0.5c-0.8,0.6-1.7,1.3-2.7,1.5s-2.2-0.1-2.8-1c-0.3-0.5-0.5-1.2-1-1.4
								c-0.2-0.1-0.5-0.1-0.7-0.1h-3.7c-0.3,0-0.5,0-0.8-0.2c-0.2-0.2-0.3-0.4-0.3-0.6c-0.3-1-0.3-2.1-0.1-3.2
								c-0.3-0.1-0.6-0.3-0.8-0.5c-0.2-0.2-0.4-0.5-0.5-0.8s-0.2-0.6-0.2-1c0-0.3,0.1-0.7,0.2-1c0.2-0.3,0.3-0.6,0.5-1
								c0.1-0.6-0.1-1.2-0.2-1.7c-0.1-0.8,0-1.6,0.5-2.3c0.2-0.2,0.3-0.5,0.4-0.8c0.1-0.4-0.2-0.8-0.4-1.1c-0.3-0.6-0.5-1.3-0.6-2
								s0-1.4,0.2-2.1c0.2-0.5,0.4-1,0.3-1.5c-0.1-0.3-0.1-0.6-0.3-0.9c-0.3-0.7-0.4-1.4-0.3-2.1c0-0.7,0.2-1.4,0.6-2.1
								c0.2-0.3,0.4-0.7,0.5-1.1c0-0.3,0-0.7-0.1-1c-0.4-1.8-0.4-3.6-0.1-5.4c0.2-1,0.5-2.1,1.4-2.5c0.2-0.1,0.4-0.2,0.5-0.3
								c0.1-0.2,0.1-0.4,0.1-0.6c0-0.4,0.1-0.8,0.3-1.1c0.2-0.4,0.4-0.7,0.7-0.9c0.3-0.3,0.6-0.4,1-0.6c0.4-0.1,0.8-0.2,1.1-0.1
								c0.5-2.1,3.2-3.3,5-2.2c0.1-0.5,0.4-1,0.8-1.4s0.9-0.6,1.5-0.6c1.3-0.1,2,1,3,1.6C351.6,341.2,352.9,342.2,353.9,342.4z"/>
							<path class="st42" d="M329.4,343.3c-0.1-0.1-0.3-0.2-0.5-0.2c-1.1-0.2-2.2,0.2-3.2,0.4c-2.5,0.5-5.1,0.3-7.6,0.2
								c-0.1,0-0.1,0-0.2,0s-0.1,0.1-0.2,0.2c-0.1,0.2-0.1,0.4-0.1,0.7c0,0.2,0.1,0.4,0.3,0.6c0.3,0.3,0.7,0.6,1.1,0.7
								c0.6,0.3,1.3,0.5,1.9,0.6c0.8,0.1,1.7,0.2,2.5,0.2c1.6,0,3.2,0,4.6-0.6c0.4-0.1,0.8-0.4,1-0.8
								C329.3,344.7,329.8,343.7,329.4,343.3z"/>
							<path class="st44" d="M333.1,322c0.3,0.4,0.6,0.9,0.8,1.3c0.8,1.6,0.9,3.5,1,5.3c0.1,1.6-0.2,3.1-0.7,4.6
								c-0.6,1.5-1.6,2.6-2.4,4c-0.7,1.2-1.2,2.5-2,3.6c-0.7,1-1.6,1.9-2.6,2.6s-2.2,1.1-3.4,1.2c-1.2,0.1-2.4,0-3.5-0.5
								s-2.1-1.2-2.9-2.1c-0.8-1-1.3-2.1-1.9-3.2c-0.6-0.9-1.2-1.9-1.7-2.9c-0.7-1.5-0.9-3.3-1-5c-0.2-1.7-0.1-3.3,0.1-5
								s1-3.2,2.1-4.4c0.7-0.7,1.5-1.3,2.4-1.7c1.4-0.9,2.9-1.8,4.5-2.2c1.6-0.4,3.4-0.4,4.9,0.6c0.6,0.4,1.1,0.9,1.8,1.3
								c0.6,0.4,1.4,0.5,2.1,0.8C331.7,320.6,332.5,321.2,333.1,322z"/>
							<path class="st40" d="M320.4,374.5c0,0,7,0.2,8.3,3.2c1.3,2.9,1.3,23.2,1.3,23.2h-30c0,0-0.7-21.3,0.7-23.3
								C302.2,375.5,320.4,374.5,320.4,374.5z"/>
							<path class="st41" d="M311.6,345.2c1.4-0.4,3-0.3,4.3,0.4c0.7,0.4,1,1.1,1.6,1.6c0.5,0.3,1.3-0.1,1.7,0.6
								c0.5,0.7,0.8,1.9,1.2,2.7c0.5,1,0.9,2.1,1.3,3.2c0.8,2.2,1.4,4.4,1.8,6.7c0.9,4.5,1.2,9.1,1,13.7c-0.1,2.8-0.3,5.6-1.4,8.1
								c-1.1,2.8-6.2,2-8.5,2c-3.9-0.1-7.9-0.3-11.8-0.6c-0.9-9-0.7-18,0.5-26.9c0.3-2,0.6-4,1.5-5.8
								C306.2,348.5,308.8,346,311.6,345.2z"/>
						</g>
					</g>
				</g>
			</g>
		</g>
	</g>
</g>
<g>
	<g>
		<path class="st48" d="M263.4,170.3c0-1,0-2,0-3v-0.1c0.1-0.4,0.1-0.9,0.1-1.3c0.4-2.8,1.3-5.4,2.8-7.7c0.1-0.2,0.1-0.3,0-0.5
			c-1.1-2.2-1.8-4.5-2.1-6.9c-0.2-2.2-0.1-4.4,0.3-6.6c1.1-5.1,3.9-9.2,8.3-12.1c5.6-3.7,11.3-7.3,17-10.9c3.1-2,6.5-3.1,10.2-3.3
			c3.5-0.2,6.9,0.4,10.1,1.8c4.1,1.7,7.3,4.4,9.8,8c2.4,3.4,3.6,7.2,3.7,11.4c0,4-0.9,7.8-3.1,11.2c-0.1,0.1-0.1,0.2,0,0.3
			c2.1,4.1,2.8,8.5,1.9,13c-1,5.4-3.8,9.7-8.4,12.7c-5.6,3.7-11.3,7.2-17,10.9c-3.2,2.1-6.8,3.2-10.6,3.3c-0.5,0-1.1,0-1.6,0
			c-1.1-0.1-2.2-0.2-3.3-0.4c-4.4-0.8-8.2-2.8-11.4-5.9c-3.8-3.6-6.1-8-6.6-13.3C263.5,170.7,263.4,170.5,263.4,170.3z M314.4,143.8
			L314.4,143.8c0.1-0.3,0.2-0.5,0.2-0.7c0.8-2.3,0.9-4.7,0.3-7.1c-1.1-4.5-5.2-9-11-9.8c-3.2-0.5-6.2,0.1-8.9,1.9
			c-5.6,3.6-11.2,7.1-16.8,10.7c-4.2,2.7-6,6.7-5.4,11.6c0.4,3.6,2.2,6.5,5.1,8.7c2.7,2.1,5.9,3,9.3,2.7c2-0.2,3.9-0.7,5.6-1.8
			c2.1-1.3,4.2-2.7,6.3-4c1.1-0.7,2.3-0.9,3.6-0.4c1.5,0.5,2.4,1.6,2.6,3.2c0.2,1.5-0.5,2.7-1.8,3.5c-5.5,3.5-11,7-16.5,10.6
			c-0.4,0.3-0.9,0.5-1.4,0.6c-2.7,0.6-5.2-1.7-4.8-4.5c0-0.1,0-0.2,0-0.3c-3-0.8-5.7-2.2-8.1-4.1c0,0.1,0,0.1-0.1,0.1
			c-0.1,0.5-0.3,1-0.4,1.6c-0.7,2.7-0.6,5.4,0.6,8c2.2,4.8,6,7.5,11.2,8.1c2.8,0.3,5.4-0.3,7.8-1.8c5.8-3.6,11.5-7.3,17.3-11
			c1-0.6,1.9-1.4,2.6-2.3c2.9-3.7,3.4-7.8,1.8-12.1c-1.9-4.8-6.6-8.3-12.2-8.4c-2.5,0-4.8,0.6-6.9,1.9c-2.2,1.4-4.3,2.8-6.5,4.1
			c-1.2,0.8-2.5,0.9-3.8,0.3c-1.4-0.6-2.3-1.8-2.3-3.4c-0.1-1.4,0.6-2.5,1.8-3.3c0.8-0.5,1.6-1,2.3-1.5c4.8-3,9.5-6.1,14.3-9.1
			c1.8-1.2,4.2-0.7,5.4,1c0.6,0.9,0.9,1.8,0.7,2.9c0,0.3,0,0.4,0.3,0.4c1.8,0.5,3.6,1.3,5.2,2.3
			C312.7,142.6,313.5,143.2,314.4,143.8z"/>
		<path class="st49" d="M286.5,190.4c3.8-0.2,7.4-1.3,10.6-3.3c5.7-3.6,11.4-7.2,17-10.9c4.6-3,7.4-7.3,8.4-12.7
			c0.8-4.6,0.2-8.9-1.9-13c-0.1-0.1-0.1-0.2,0-0.3c2.2-3.4,3.2-7.2,3.1-11.2c-0.1-4.2-1.3-7.9-3.7-11.4c-2.5-3.6-5.8-6.3-9.8-8
			c-3.2-1.4-6.6-2-10.1-1.8c-3.7,0.2-7.1,1.3-10.2,3.3c-5.7,3.6-11.4,7.2-17,10.9c-4.4,2.9-7.1,6.9-8.3,12.1
			c-0.5,2.2-0.6,4.4-0.3,6.6c0.3,2.4,1,4.8,2.1,6.9c0.1,0.2,0.1,0.3,0,0.5c-1.5,2.4-2.5,4.9-2.8,7.7c-0.1,0.4-0.1,0.9-0.1,1.3v0.1
			c0-16.5,0-33.1,0-49.6c20.1,0,40.3,0,60.4,0c0,24.3,0,48.5,0,72.8C311.4,190.5,298.9,190.5,286.5,190.4
			C286.5,190.5,286.5,190.4,286.5,190.4z"/>
		<path class="st49" d="M263.4,170.3c0,0.2,0.1,0.4,0.1,0.5c0.5,5.3,2.8,9.7,6.6,13.3c3.2,3.1,7.1,5,11.4,5.9
			c1.1,0.2,2.2,0.3,3.3,0.4l0,0c-7.2,0-14.3,0-21.5,0C263.4,183.8,263.4,177,263.4,170.3z"/>
		<path class="st50" d="M284.9,190.5C284.9,190.5,284.9,190.4,284.9,190.5c0.5,0,1.1,0,1.6,0l0,0C286,190.5,285.4,190.5,284.9,190.5
			z"/>
		<path class="st49" d="M314.4,143.8c-0.9-0.6-1.7-1.2-2.5-1.7c-1.6-1-3.4-1.8-5.2-2.3c-0.3-0.1-0.3-0.2-0.3-0.4
			c0.1-1-0.1-2-0.7-2.9c-1.3-1.7-3.6-2.2-5.4-1c-4.8,3-9.5,6.1-14.3,9.1c-0.8,0.5-1.5,1-2.3,1.5c-1.2,0.8-1.9,1.8-1.8,3.3
			c0.1,1.6,0.9,2.7,2.3,3.4c1.3,0.6,2.6,0.5,3.8-0.3c2.2-1.4,4.3-2.8,6.5-4.1c2.1-1.3,4.4-1.9,6.9-1.9c5.6,0.1,10.4,3.6,12.2,8.4
			c1.7,4.3,1.2,8.4-1.8,12.1c-0.7,0.9-1.6,1.7-2.6,2.3c-5.7,3.7-11.5,7.3-17.3,11c-2.4,1.5-5,2.1-7.8,1.8c-5.3-0.6-9-3.3-11.2-8.1
			c-1.2-2.5-1.3-5.2-0.6-8c0.1-0.5,0.3-1,0.4-1.6c0,0,0,0,0.1-0.1c2.4,1.9,5.1,3.3,8.1,4.1c0,0.1,0,0.2,0,0.3
			c-0.4,2.8,2.1,5.1,4.8,4.5c0.5-0.1,1-0.3,1.4-0.6c5.5-3.5,11-7,16.5-10.6c1.3-0.8,2-2,1.8-3.5c-0.2-1.6-1.1-2.7-2.6-3.2
			c-1.3-0.5-2.5-0.3-3.6,0.4c-2.1,1.3-4.2,2.7-6.3,4c-1.7,1.1-3.6,1.7-5.6,1.8c-3.4,0.3-6.6-0.6-9.3-2.7c-2.9-2.2-4.7-5.1-5.1-8.7
			c-0.6-4.9,1.2-8.9,5.4-11.6c5.6-3.6,11.2-7.1,16.8-10.7c2.7-1.7,5.7-2.4,8.9-1.9c5.8,0.9,9.9,5.3,11,9.8c0.6,2.4,0.5,4.7-0.3,7.1
			C314.5,143.3,314.5,143.5,314.4,143.8L314.4,143.8z"/>
	</g>
</g>
<g id="P2hkdg">
	<path class="st51" d="M142.1,25.6c0.3-1.7,0.7-3.4,1-5.1c0.2-1,0.4-1.9,0.5-3c1.6,0.3,3.2,0.5,4.7,0.8c0.4,0.2,0.9-0.1,1-0.5
		c0,0,0,0,0-0.1c0.7-1.4,1.5-2.7,2.3-4c0.3-0.3,0.3-0.8,0-1.1l0,0c-1-1.2-2-2.4-3.1-3.7l6.7-5.6c1,1.2,2.1,2.4,3,3.6
		c0.2,0.4,0.7,0.6,1.1,0.3h0.1c1.3-0.6,2.7-1.1,4.1-1.5c0.6-0.2,0.8-0.5,0.8-1.1c0-1.5,0-3.1,0-4.6h8.7c0,1.6,0,3.1,0,4.7
		c0,0.6,0.2,0.9,0.8,1c1.4,0.4,2.8,0.9,4.1,1.5c0.4,0.3,0.9,0.2,1.2-0.2c0,0,0-0.1,0.1-0.1c1-1.2,2-2.4,3-3.6l6.7,5.6l-3.4,4.1
		c0.9,1.7,1.8,3.4,2.7,5c0.1,0.2,0.5,0.3,0.8,0.2c1.6-0.2,3.1-0.5,4.8-0.8l1.5,8.6c-1.6,0.3-3.2,0.6-4.8,0.9c-0.3,0-0.6,0.3-0.7,0.5
		c-0.3,1.8-0.6,3.6-0.9,5.6l4.6,2.7l-4.4,7.6l-4.6-2.7c-1.5,1.2-3,2.3-4.4,3.5c-0.2,0.2-0.2,0.5-0.1,0.7c0.5,1.5,1.1,3.1,1.7,4.7
		l-8.2,3c-0.5-1.4-1.1-2.8-1.5-4.1c-0.1-0.7-0.7-1.1-1.3-1c-0.1,0-0.1,0-0.2,0c-1.4,0.1-2.8,0.1-4.2,0c-0.4-0.1-0.8,0.1-0.9,0.5
		c0,0,0,0,0,0.1c-0.5,1.5-1.1,3-1.7,4.6l-8.2-3l1.8-5.1l-4.6-3.9l-4.7,2.7l-4.4-7.6c1.5-0.8,2.8-1.6,4.2-2.4c0.4-0.2,0.6-0.6,0.4-1
		l0,0c-0.3-1.4-0.6-2.8-0.8-4.3c-0.1-0.7-0.2-1-1-1.1c-1.5-0.2-3-0.5-4.5-0.8L142.1,25.6z M168.8,15.2c-6.2-0.1-11.2,4.8-11.3,11
		s4.8,11.2,11,11.3s11.2-4.8,11.3-11C179.9,20.4,175,15.3,168.8,15.2z"/>
	<path class="st51" d="M217.5,50.9l1.9,6c-1.1,0.4-2.2,0.7-3.2,1.1c-0.3,0.1-0.5,0.4-0.5,0.6c-0.1,1.1-0.1,2.1-0.1,3.2
		c-0.1,0.4,0.1,0.8,0.5,0.8l0,0c1,0.4,2,0.8,3.1,1.2c-0.8,2-1.6,3.9-2.4,5.8c-1.1-0.4-2.1-0.9-3.2-1.3c-0.3-0.1-0.6,0-0.8,0.2
		c-0.8,0.9-1.6,1.8-2.5,2.9l1.8,3.4l-5.5,2.9c-0.5-1-1-2-1.6-3c-0.1-0.2-0.4-0.4-0.7-0.4c-1.3,0.1-2.5,0.4-3.9,0.6l-0.8,3.8
		l-6.1-1.3l0.8-3.8c-1.1-0.7-2.2-1.5-3.3-2.1c-0.2-0.1-0.5,0-0.7,0.1c-0.9,0.7-1.8,1.4-2.7,2.1l-3.9-4.9c0.9-0.7,1.8-1.4,2.6-2
		c0.3-0.2,0.5-0.6,0.3-0.9c0,0,0,0,0-0.1c-0.4-1-0.7-1.9-1-3c0-0.4-0.4-0.7-0.7-0.6l0,0c-1.1,0-2.2,0-3.2,0v-6.3h3.9
		c0.5-1.2,1-2.4,1.5-3.6c0.1-0.2-0.1-0.5-0.3-0.7c-0.8-0.8-1.6-1.5-2.5-2.2l4.2-4.6l2.9,2.6c1.2-0.6,2.4-1.2,3.6-1.8
		c0.1-0.1,0.2-0.5,0.2-0.7c-0.1-1.1-0.3-2.2-0.5-3.3l6.2-0.9c0.2,1.1,0.3,2.1,0.4,3.2c0.1,0.6,0.3,0.8,0.9,0.9
		c0.9,0.1,1.8,0.3,2.7,0.6c0.4,0.2,0.8,0,1-0.3c0,0,0,0,0-0.1c0.5-0.9,1.1-1.8,1.7-2.8l5.3,3.3l-2,3.3c0.8,1.1,1.6,2.1,2.4,3.1
		c0.2,0.1,0.5,0.2,0.8,0.1C215.4,51.7,216.4,51.3,217.5,50.9z M200.7,67.7c4.4-0.1,7.9-3.7,7.9-8.1c-0.1-4.4-3.7-7.9-8.1-7.9
		c-4.4,0.1-7.9,3.7-7.9,8.1l0,0C192.7,64.3,196.3,67.8,200.7,67.7L200.7,67.7z"/>
	<path class="st51" d="M218.9,17.1l2.4-1.9l3.1,3.9c-0.6,0.5-1.1,1-1.7,1.3s-0.8,0.8-0.4,1.5c0.1,0.2,0.2,0.5,0.3,0.8
		c0.5,1.6,0.5,1.6,2.2,1.6c0.4,0,0.8,0,1.2,0v4.9c-0.9,0-1.7,0-2.5,0c-0.5,0-0.7,0.1-0.8,0.6c-0.1,0.4-0.2,0.7-0.4,1.1
		c-0.6,1.5-0.6,1.5,0.6,2.7l1,0.9l-3.3,3.7l-2.3-2c-0.9,0.5-1.8,0.9-2.7,1.4c-0.2,0.2-0.3,0.4-0.2,0.6c0.1,0.8,0.2,1.7,0.3,2.6
		l-4.9,0.7c-0.1-0.9-0.2-1.7-0.4-2.5c-0.1-0.3-0.3-0.5-0.6-0.6c-0.9-0.2-1.8-0.4-2.8-0.6l-1.6,2.6l-4.2-2.6c0.5-0.7,0.9-1.5,1.3-2.1
		c0.3-0.2,0.3-0.6,0-0.9l-0.1-0.1c-0.3-0.3-0.7-0.7-1-1.1c-0.8-1.1-0.8-1.1-2-0.6c-0.5,0.2-1,0.3-1.7,0.5l-1.5-4.7
		c0.8-0.3,1.6-0.5,2.3-0.8c0.4-0.1,0.7-0.4,0.6-0.8c0,0,0,0,0-0.1c0-0.7,0-1.4,0.1-2.1c0.1-0.4-0.1-0.7-0.5-0.8l0,0
		c-0.8-0.3-1.5-0.6-2.3-0.9l1.8-4.6c0.8,0.3,1.6,0.7,2.4,0.9c0.3,0.1,0.5,0,0.8-0.2c0.7-0.7,1.3-1.4,1.9-2.2l-1.4-2.7l4.3-2.3
		l1.5,2.7l3.4-0.5l0.6-3l4.8,1c-0.2,0.8-0.3,1.6-0.5,2.4c-0.2,0.4,0,0.8,0.4,1h0.1C217.4,16.1,218.1,16.6,218.9,17.1z M204.9,26.3
		c0,3.5,2.8,6.3,6.3,6.3s6.3-2.8,6.3-6.3c0-3.4-2.7-6.2-6.2-6.3c-3.4-0.1-6.3,2.6-6.4,6.1C204.9,26.2,204.9,26.2,204.9,26.3
		L204.9,26.3z"/>
</g>
<g>
	<path class="st52" d="M112.5,390.5H47.6c-6.6,0-11.9-5.3-11.9-11.9v-45.7c0-6.6,5.3-11.9,11.9-11.9h64.9c6.6,0,11.9,5.3,11.9,11.9
		v45.7C124.4,385.2,119.1,390.5,112.5,390.5z M47.6,325.1c-4.4,0-7.9,3.6-7.9,7.9v45.7c0,4.4,3.6,7.9,7.9,7.9h64.9
		c4.4,0,7.9-3.6,7.9-7.9V333c-0.1-4.4-3.6-7.9-7.9-7.9H47.6z"/>
	<path class="st42" d="M47.3,321.3h64.9c5.5,0,9.9,4.4,9.9,9.9v45.7c0,5.5-4.4,9.9-9.9,9.9H47.3c-5.5,0-9.9-4.4-9.9-9.9v-45.7
		C37.4,325.7,41.8,321.3,47.3,321.3z"/>
	<path class="st40" d="M48.2,354.7l21.4-11v3.2l-18,9v0.1l18,9v3.2l-21.4-11C48.2,357.2,48.2,354.7,48.2,354.7z"/>
	<path class="st40" d="M72.6,370.1l12.9-33.4h3.1l-12.9,33.4H72.6z"/>
	<path class="st40" d="M112.8,357.3l-21.4,11v-3.2l18.1-9v-0.2l-18.1-9v-3.2l21.4,11V357.3z"/>
</g>
<g class="st53">
	<rect x="6.4" y="99.3" class="st40" width="48.5" height="3.6"/>
	<rect x="6.4" y="106.2" class="st40" width="29.6" height="3.3"/>
	<rect x="48" y="106.2" class="st40" width="93.2" height="3.4"/>
	<rect x="21.8" y="113.1" class="st40" width="40.7" height="3.5"/>
	<rect x="34.9" y="120" class="st40" width="48.5" height="3.6"/>
	<rect x="86.5" y="120" class="st40" width="40.7" height="4"/>
	<rect x="34.8" y="126.9" class="st40" width="37.5" height="3.3"/>
	<rect x="75.9" y="126.9" class="st40" width="77.3" height="3.7"/>
	<rect x="6.4" y="136.2" class="st40" width="48.5" height="3.6"/>
	<rect x="6.4" y="143.1" class="st40" width="29.6" height="3.3"/>
	<rect x="48" y="143.1" class="st40" width="93.2" height="3.4"/>
	<rect x="21.8" y="150" class="st40" width="40.7" height="3.5"/>
	<rect x="34.9" y="156.9" class="st40" width="48.5" height="3.6"/>
	<rect x="86.5" y="156.9" class="st40" width="40.7" height="4"/>
	<rect x="34.8" y="163.8" class="st40" width="37.5" height="3.3"/>
	<rect x="75.9" y="163.8" class="st40" width="77.3" height="3.7"/>
	<rect x="6.4" y="173.1" class="st40" width="48.5" height="3.6"/>
	<rect x="6.4" y="180" class="st40" width="29.6" height="3.3"/>
	<rect x="48" y="180" class="st40" width="93.2" height="3.4"/>
	<rect x="21.8" y="186.8" class="st40" width="40.7" height="3.5"/>
	<rect x="34.9" y="193.7" class="st40" width="48.5" height="3.6"/>
	<rect x="86.5" y="193.7" class="st40" width="40.7" height="4"/>
	<rect x="34.8" y="200.6" class="st40" width="37.5" height="3.3"/>
	<rect x="75.9" y="200.6" class="st40" width="77.3" height="3.7"/>
</g>
</svg>
