<?xml version="1.0" standalone="no"?>
<!DOCTYPE svg PUBLIC "-//W3C//DTD SVG 20010904//EN"
 "http://www.w3.org/TR/2001/REC-SVG-20010904/DTD/svg10.dtd">
<svg version="1.0" xmlns="http://www.w3.org/2000/svg"
 width="512.000000pt" height="512.000000pt" viewBox="0 0 512.000000 512.000000"
 preserveAspectRatio="xMidYMid meet">
<metadata>
Created by potrace 1.11, written by Peter Selinger 2001-2013
</metadata>
<g transform="translate(0.000000,512.000000) scale(0.100000,-0.100000)"
fill="#000000" stroke="none">
<path d="M2900 4657 c-3 -3 -27 -7 -55 -10 -58 -7 -70 -9 -150 -31 -33 -10
-64 -18 -70 -20 -5 -1 -27 -10 -49 -19 -21 -9 -41 -17 -45 -17 -23 0 -420
-245 -855 -527 -55 -36 -110 -70 -123 -76 -12 -5 -23 -14 -23 -19 0 -4 -4 -8
-9 -8 -9 0 -67 -36 -190 -119 -123 -82 -279 -266 -355 -419 -124 -246 -147
-592 -60 -862 9 -25 29 -78 46 -117 l31 -73 -50 -97 c-98 -189 -133 -340 -128
-553 4 -142 6 -165 31 -270 83 -349 357 -673 704 -836 66 -31 205 -80 250 -88
14 -3 25 -5 25 -6 0 -1 9 -3 20 -5 11 -2 49 -8 85 -13 74 -12 288 -12 340 -1
19 4 49 10 65 12 153 24 306 91 523 231 74 47 137 86 142 86 5 0 10 4 12 8 2
4 32 26 68 47 36 21 67 42 70 45 3 3 23 17 45 30 22 13 69 43 105 66 36 23
153 97 260 165 235 148 279 180 356 256 54 52 139 155 171 208 60 95 132 275
149 370 3 22 9 49 11 60 9 42 11 282 3 330 -24 134 -40 192 -82 298 l-39 97
60 123 c52 106 79 185 106 312 15 69 14 291 0 383 -85 515 -486 919 -1030
1039 -64 14 -355 30 -365 20z"/>
</g>
</svg>
